<svg width="256" height="256" viewBox="0 0 10240 10240" version="1.1" sodipodi:docname="mork-nobg.svg" inkscape:version="1.2.2 (b0a8486, 2022-12-01)" xmlns:inkscape="http://www.inkscape.org/namespaces/inkscape" xmlns:sodipodi="http://sodipodi.sourceforge.net/DTD/sodipodi-0.dtd" xmlns="http://www.w3.org/2000/svg" xmlns:svg="http://www.w3.org/2000/svg">
  <defs id="defs312" fill="#000000"/>
  <sodipodi:namedview id="namedview310" pagecolor="#ffffff" bordercolor="#666666" borderopacity="1.0" inkscape:showpageshadow="2" inkscape:pageopacity="0.0" inkscape:pagecheckerboard="0" inkscape:deskcolor="#d1d1d1" showgrid="false" inkscape:zoom="0.921875" inkscape:cx="597.15254" inkscape:cy="700.74576" inkscape:window-width="1920" inkscape:window-height="1052" inkscape:window-x="0" inkscape:window-y="0" inkscape:window-maximized="1" inkscape:current-layer="outputsvg" fill="#000000"/>
  <g id="l2aQiQ18wjNokckBYkwp1vv" fill="#00d5d9" style="transform: none;">
    <g style="transform: none;" id="g64">
      <path id="p16dMnY61n" d="M 5434 9849 l -6 -11 15 -15 15 -16 89 -9 c 275 -29 453 -58 642 -104 l 144 -35 156 -54 c 182 -62 290 -106 495 -200 l 149 -69 51 -38 c 58 -43 66 -45 90 -19 l 17 18 -10 25 -9 25 -24 6 c -13 4 -33 7 -46 7 l -22 0 -118 59 c -274 137 -669 283 -917 341 -233 54 -535 100 -652 100 l -52 0 -7 -11 z " fill="#000000"/>
      <path id="p15NtcY13c" d="M 4370 9789 c -285 -70 -560 -156 -754 -235 l -109 -45 -27 6 -26 6 -27 -21 -27 -21 0 -17 0 -17 27 -17 27 -16 51 29 c 117 66 499 198 780 269 94 24 176 47 183 53 17 13 15 25 -5 35 l -18 9 -75 -18 z " fill="#000000"/>
      <path id="p11anZ8DWf" d="M 4715 9700 c -11 -5 -32 -9 -47 -9 l -28 -1 0 -14 0 -14 20 -5 20 -5 0 10 0 10 30 -4 30 -5 0 10 0 9 16 -6 15 -6 -3 17 -3 18 -15 2 c -8 1 -24 -2 -35 -7 z " fill="#000000"/>
      <path id="p1Bckk3v8v" d="M 4866 9698 l -8 -18 -14 0 -13 0 5 -15 6 -15 -14 0 -14 0 0 -20 0 -20 23 0 23 0 0 14 0 14 11 4 11 4 -4 34 -4 35 -8 -17 z " fill="#000000"/>
      <path id="p6WGAt5ru" d="M 4787 9540 l -6 -30 -16 0 -15 0 0 -15 0 -15 10 0 10 0 0 -15 0 -15 -16 0 -17 0 5 -87 6 -88 21 -52 c 11 -29 32 -71 46 -93 14 -22 25 -44 25 -50 l 0 -10 -15 0 -15 0 0 -10 0 -10 14 0 14 0 36 -40 35 -39 9 16 9 16 79 -33 79 -33 80 -5 80 -4 78 26 c 42 14 86 26 97 26 l 19 0 10 -17 10 -18 1 21 0 21 40 27 c 22 14 44 26 50 26 15 0 12 11 -6 25 l -16 11 40 80 40 79 11 56 10 55 -5 45 c -3 24 -7 59 -10 77 l -5 32 -14 0 -15 0 0 -19 c 0 -11 -3 -26 -6 -35 l -6 -16 -108 0 -108 0 -12 29 -11 29 -27 23 -27 23 -62 4 -62 4 -27 -6 -27 -7 -42 -46 -42 -45 -104 7 -104 7 3 59 4 59 -10 0 -9 0 -6 -30 z  m 483 -62 c 0 -5 -5 -8 -11 -8 l -11 0 12 -15 12 -15 17 -1 16 -1 -11 -4 -11 -5 4 -47 5 -47 -24 -35 -24 -35 -27 -13 -28 -13 -33 11 -33 11 -24 25 -23 24 0 53 -1 52 20 27 20 26 30 9 30 9 47 0 48 -1 0 -7 z " fill="#000000"/>
      <path id="p1BgXjHsTi" d="M 5910 9541 c 0 -7 6 -18 13 -24 l 12 -12 58 -2 57 -2 0 13 0 13 -37 6 c -21 4 -53 9 -70 13 l -33 7 0 -12 z " fill="#000000"/>
      <path id="p2nUZdGNN" d="M 3973 9510 l -23 -9 0 -15 0 -15 20 2 20 1 0 9 0 9 15 -6 15 -5 0 9 0 10 15 0 15 0 0 10 0 10 -27 -1 c -16 0 -38 -4 -50 -9 z " fill="#000000"/>
      <path id="p16a7FTVLj" d="M 3870 9471 c -51 -27 -61 -31 -75 -31 l -16 0 -5 -15 -6 -15 -29 0 -29 0 -20 -20 -20 -20 -14 0 c -7 0 -30 -7 -50 -15 l -36 -15 0 -10 0 -10 -22 0 -23 0 -52 -25 -53 -24 0 -15 0 -15 20 2 20 1 0 9 0 8 10 -6 10 -6 0 11 0 11 10 -6 10 -6 0 11 0 11 10 -6 10 -6 0 10 c 0 6 3 10 8 9 4 -1 21 5 38 15 l 31 16 7 -6 6 -6 0 12 0 12 10 -6 10 -6 0 11 0 11 10 -6 10 -6 0 9 0 10 28 8 c 15 4 30 7 35 6 4 -1 7 3 7 9 l 0 10 10 -6 10 -6 0 9 0 10 28 7 c 15 4 29 6 31 5 2 -1 7 3 10 8 3 6 15 12 26 14 11 1 23 7 26 11 3 4 16 9 27 10 l 22 1 0 8 0 8 15 0 15 0 0 10 0 10 -27 -1 c -16 0 -35 -4 -43 -8 z " fill="#000000"/>
      <path id="pc1WqQeQG" d="M 6350 9432 c 0 -4 9 -16 21 -25 l 21 -18 15 5 15 6 34 -21 35 -21 14 6 14 5 8 -13 8 -13 35 -10 c 19 -6 46 -11 60 -11 l 25 -1 11 -15 11 -15 34 -5 c 46 -6 90 -23 114 -46 l 20 -18 28 0 27 1 0 12 0 13 -157 63 c -181 71 -349 129 -375 129 l -18 0 0 -8 z " fill="#000000"/>
      <path id="pOWfUDT3P" d="M 3293 9203 l -33 -17 -1 -15 -1 -16 -4 12 -5 11 -107 -60 c -179 -101 -480 -313 -625 -440 l -37 -33 8 -13 9 -13 74 62 c 41 34 110 89 154 122 44 34 82 65 83 69 2 4 8 8 13 8 8 0 105 65 119 80 3 3 22 14 43 24 20 11 37 23 37 28 l 0 8 15 0 15 0 0 11 0 10 10 -6 10 -6 0 10 0 11 15 0 15 0 0 11 0 10 10 -6 10 -6 0 11 0 11 10 -6 10 -6 0 9 0 10 25 6 25 6 0 11 0 10 10 -6 10 -6 0 11 0 11 10 -6 10 -6 0 10 0 9 45 18 45 17 28 23 27 24 -25 -1 -25 0 -32 -16 z " fill="#000000"/>
      <path id="pKW4iuRuF" d="M 5580 8858 c 0 -18 3 -43 6 -55 l 6 -23 24 0 c 27 0 28 3 14 30 l -10 18 15 12 14 12 11 -7 10 -6 0 25 0 26 -45 0 -45 0 0 -32 z " fill="#000000"/>
      <path id="p1F4iIhxYu" d="M 4628 8873 l -18 -4 0 -23 0 -22 20 0 20 0 0 9 0 9 15 -6 15 -5 0 9 0 10 15 0 15 0 0 15 0 15 -32 -1 c -18 -1 -41 -3 -50 -6 z " fill="#000000"/>
      <path id="p1E9M7KkYM" d="M 2617 8183 c -4 -3 -7 -21 -7 -40 l 0 -33 38 0 37 1 -16 12 -16 12 4 13 5 12 14 0 14 0 0 15 0 15 -33 0 c -19 0 -37 -3 -40 -7 z " fill="#000000"/>
      <path id="p11fVkPURK" d="M 1634 7903 c -332 -368 -631 -877 -811 -1382 l -44 -125 5 -12 5 -13 -9 -3 -10 -3 -25 -85 -26 -85 5 -17 4 -18 -10 0 -10 0 5 -20 5 -20 -10 0 -10 0 5 -20 5 -20 -10 0 -10 0 6 -25 6 -25 -10 0 -11 0 6 -20 6 -20 -11 0 -12 0 6 -25 6 -25 -11 0 -11 0 6 -30 6 -30 -11 0 -12 0 6 -30 6 -30 -10 0 -10 0 7 -45 6 -45 -10 0 -11 0 6 -50 6 -50 -12 0 -11 0 0 -35 0 -35 9 0 c 16 0 20 13 31 111 18 149 48 320 76 426 15 54 30 116 35 138 14 58 55 184 99 305 180 489 470 983 782 1331 43 48 78 92 78 98 l 0 11 -13 0 -13 0 -70 -77 z " fill="#000000"/>
      <path id="p17pv7JPOd" d="M 2333 7860 l -5 -20 -14 0 -14 0 0 -35 0 -35 8 0 c 4 0 16 14 25 30 l 18 30 15 -14 c 8 -8 14 -19 14 -25 l 0 -11 20 0 20 0 0 50 0 50 -41 0 -41 0 -5 -20 z " fill="#000000"/>
      <path id="pnM47lkke" d="M 3402 7653 l 3 -38 40 -3 39 -3 -17 19 c -21 23 -22 32 -2 32 l 15 0 0 15 0 15 -41 0 -40 0 3 -37 z " fill="#000000"/>
      <path id="pdj9dd4Oy" d="M 5560 5843 l 0 -8 -96 0 -96 0 -18 -22 -17 -22 -7 -68 c -3 -37 -6 -203 -7 -369 l -2 -301 7 -12 7 -11 -10 0 -9 0 10 -37 c 5 -21 19 -52 29 -70 l 20 -32 43 -20 42 -21 330 0 329 0 40 19 c 22 10 51 29 64 42 l 24 23 65 135 c 35 75 115 240 178 368 132 268 133 270 140 333 l 5 46 -26 12 -26 12 -69 0 -70 0 -29 -27 -30 -28 -109 -230 c -60 -126 -130 -274 -156 -328 l -47 -98 -32 -19 -32 -20 -187 0 -188 0 -15 24 -16 25 7 46 7 47 13 5 14 5 0 19 0 19 -20 0 -20 0 0 263 0 262 -6 23 -6 22 -14 0 c -8 0 -14 -3 -14 -7 z " fill="#000000"/>
      <path id="pS8gOzpQ6" d="M 2343 5533 c -7 -2 -13 -9 -13 -15 0 -5 -6 -24 -14 -41 -8 -18 -24 -63 -36 -102 -13 -38 -25 -74 -28 -80 -23 -39 -265 -773 -337 -1023 l -45 -154 0 -28 c 0 -16 -4 -40 -10 -54 l -10 -26 -25 -12 -25 -11 -37 11 -38 11 -15 23 -15 23 -3 583 -3 582 -14 0 -15 0 0 -15 0 -15 -10 0 -10 0 0 -19 0 -19 13 -5 12 -5 -12 -1 -13 -1 0 -59 0 -59 13 -5 12 -5 -15 -12 -15 -12 13 -5 12 -5 0 -24 0 -24 -12 0 -13 0 15 -10 15 -10 -12 0 -13 0 0 -435 0 -435 15 0 15 0 0 -9 c 0 -5 -5 -11 -11 -13 l -11 -4 13 -27 12 -27 23 -15 24 -15 45 -7 46 -6 39 18 39 18 15 31 15 32 10 66 11 66 41 133 c 22 74 56 181 75 239 118 363 150 458 222 665 44 127 83 238 87 247 l 7 17 16 3 17 4 12 -21 12 -20 1 47 c 0 25 -3 53 -6 62 l -6 16 -32 -1 c -17 0 -37 -3 -43 -6 z " fill="#000000"/>
      <path id="p2eOPbEg0" d="M 6488 5092 l -18 -3 0 -15 0 -14 19 0 20 0 6 -10 6 -10 40 0 39 0 0 9 c 0 23 -73 52 -112 43 z " fill="#000000"/>
      <path id="plOG3XzlN" d="M 830 4905 l 0 -35 38 0 37 1 -19 14 -19 14 6 21 5 20 -24 0 -24 0 0 -35 z " fill="#000000"/>
      <path id="pIv0y8Z6h" d="M 6450 4850 l -15 -10 -32 0 -32 0 6 -16 6 -16 -11 -7 -12 -7 29 -59 28 -60 46 -43 c 26 -23 47 -45 47 -47 0 -3 -12 -5 -26 -5 l -25 0 15 -15 c 8 -8 19 -15 25 -15 9 0 175 -132 216 -172 l 10 -9 -700 2 -700 2 -17 -8 -18 -7 0 -28 0 -28 -11 -4 -12 -4 12 -37 12 -36 30 -25 30 -25 37 -11 37 -10 712 0 713 0 42 17 c 24 9 57 26 73 38 l 30 22 21 44 22 44 5 73 4 73 -120 102 c -66 56 -165 141 -221 188 -56 47 -111 91 -123 97 l -22 12 -48 0 -48 0 -15 -10 z " fill="#000000"/>
      <path id="pQTb57Gr3" d="M 333 4780 l 17 -11 0 -14 0 -14 30 2 31 2 -3 20 -3 20 -45 3 -45 2 18 -10 z " fill="#000000"/>
      <path id="pkiEE32zY" d="M 617 4583 c -4 -3 -7 -21 -7 -40 l 0 -33 9 0 9 0 -6 -45 -5 -45 12 0 12 0 -7 -50 -7 -50 12 0 11 0 -6 -40 -7 -40 12 0 11 0 -6 -25 -6 -25 12 0 12 0 -7 -30 -7 -30 11 0 11 0 -6 -25 -6 -25 12 0 12 0 -6 -25 -6 -25 10 0 11 0 -6 -20 -6 -20 11 0 12 0 -6 -25 -6 -25 10 0 11 0 -6 -20 -6 -20 11 0 11 0 -6 -20 -6 -20 11 0 11 0 -6 -20 -6 -20 11 0 11 0 -6 -20 -6 -20 11 0 12 0 -6 -15 -5 -15 10 0 11 0 -5 -20 -5 -20 10 0 10 0 -6 -15 -5 -15 10 0 11 0 -5 -20 -5 -20 10 0 10 0 -5 -14 -6 -15 11 -3 11 -4 1 -32 1 -32 9 0 8 0 -6 -15 -5 -15 10 0 11 0 -6 -15 -5 -15 10 0 11 0 -6 -15 -5 -15 10 0 11 0 -5 -14 -6 -14 16 -6 15 -6 -5 -20 -5 -20 10 0 10 0 -4 -12 -5 -13 14 -14 14 -14 -5 -13 -5 -14 10 0 11 0 -6 -15 -5 -15 11 0 11 0 -6 -6 -6 -6 15 -15 15 -15 -4 -12 -4 -11 14 -14 14 -14 -5 -13 -5 -14 10 0 10 0 -5 -9 -6 -9 16 -6 16 -6 -5 -20 -5 -20 11 0 10 0 -6 -6 -6 -6 15 -15 15 -16 -5 -13 -5 -14 10 0 10 0 -6 -10 -6 -10 11 0 11 0 -6 -10 -6 -10 11 0 11 0 -6 -10 -6 -10 11 0 11 0 -6 -10 -6 -10 11 0 11 0 -6 -10 -6 -10 11 0 11 0 -6 -10 -6 -10 11 0 11 0 -6 -10 -6 -10 11 0 11 0 -6 -10 -6 -10 11 0 11 0 -6 -10 -6 -10 10 0 c 14 0 42 -44 44 -69 l 1 -21 9 0 8 0 -6 -10 -6 -10 14 0 15 0 6 -16 6 -16 -6 -9 -5 -9 11 0 11 0 -6 -10 -6 -10 14 0 15 0 6 -16 6 -16 -6 -9 -5 -9 14 0 15 0 6 -16 6 -16 -6 -9 -5 -9 16 0 17 0 -6 -15 -5 -15 12 0 12 -1 28 -44 28 -45 -6 -10 -6 -10 16 0 17 0 -6 -15 -5 -15 15 0 16 0 -5 -14 -6 -14 20 -5 19 -5 0 -16 0 -16 11 0 11 0 -5 -14 -6 -14 21 -5 21 -6 -6 -15 -6 -15 20 -6 19 -6 0 -10 c 0 -5 0 -12 -1 -16 0 -4 9 -11 21 -15 l 22 -8 -5 -14 -5 -14 24 -11 24 -11 0 -10 c 0 -21 4 -25 32 -43 l 29 -18 -4 -12 -4 -12 39 -27 38 -28 0 -14 0 -14 30 -14 30 -13 0 -10 c 0 -6 34 -44 75 -85 l 74 -74 7 7 7 7 -90 92 c -304 314 -542 655 -757 1086 l -67 133 -73 182 c -116 286 -198 561 -260 870 l -34 172 -11 115 c -6 63 -14 130 -17 148 l -5 32 -8 0 c -4 0 -11 -3 -14 -7 z " fill="#000000"/>
      <path id="pW6JiBlQq" d="M 2470 3306 l 0 -34 16 -6 c 9 -3 29 -6 45 -6 l 29 0 0 9 c 0 5 -7 11 -15 15 -8 3 -15 10 -15 16 l 0 10 15 0 15 0 0 15 0 15 -45 0 -45 0 0 -34 z " fill="#000000"/>
      <path id="puE2lhlI5" d="M 2080 2909 l 0 -30 28 -35 27 -34 33 0 32 0 0 30 0 29 -12 28 c -7 15 -12 29 -13 29 0 1 -10 5 -22 8 l -21 7 5 -21 5 -20 -11 0 -11 0 -12 20 c -7 11 -16 20 -20 20 l -8 0 0 -31 z " fill="#000000"/>
    </g>
  </g>
  <g id="l7D6Ff6O9f7XVDeCRlcZoRS" fill="#e1ab00" style="transform: none;">
    <g style="transform: none;" id="g79">
      <path id="pBJnR6lgD" d="M 8666 7796 c 3 -8 25 -36 50 -62 24 -27 44 -51 44 -55 0 -4 18 -26 39 -50 l 40 -43 -5 -8 -5 -8 11 0 11 0 6 -17 c 4 -10 15 -27 26 -38 10 -11 25 -33 33 -50 8 -16 31 -52 51 -80 l 36 -50 5 13 4 13 -48 71 c -88 128 -94 138 -88 138 3 0 -4 9 -17 20 -13 10 -21 19 -18 20 3 0 -13 21 -37 47 l -43 46 4 7 4 7 -30 22 -30 22 6 9 5 9 -22 15 c -12 9 -26 16 -30 16 l -7 0 5 -14 z " fill="#000000"/>
      <path id="pwm6VmU7l" d="M 9017 7310 c 3 -11 8 -20 12 -20 4 0 15 -17 26 -37 10 -21 32 -59 48 -85 16 -25 28 -50 27 -54 -1 -4 3 -10 8 -13 28 -17 219 -488 291 -716 13 -38 25 -77 28 -85 3 -8 8 -23 10 -33 1 -10 16 -69 33 -130 40 -150 65 -276 85 -427 l 17 -125 10 -10 11 -10 -6 95 -6 95 -30 155 c -17 85 -35 170 -40 189 l -10 34 4 8 5 8 -9 5 c -8 5 -24 63 -25 91 -1 6 -3 12 -6 15 -3 3 -36 100 -74 215 -38 116 -86 250 -107 299 l -39 89 5 7 5 8 -9 4 c -4 1 -20 27 -35 56 l -27 53 6 9 6 10 -11 0 -11 0 6 10 6 10 -11 0 -11 0 6 10 6 10 -11 0 -11 0 6 10 6 10 -10 0 -9 0 -40 74 c -22 41 -56 99 -76 130 l -36 56 -9 0 -9 0 5 -20 z " fill="#000000"/>
      <path id="p2DSa9fIQ" d="M 7213 5839 c -6 -6 -23 -21 -37 -35 l -26 -23 2 -956 3 -955 -7 -3 -7 -2 8 -61 9 -62 17 -25 16 -25 36 -17 36 -17 54 4 54 5 25 25 26 25 9 69 9 69 -1 554 c 0 304 2 555 4 558 6 6 34 -15 439 -339 189 -151 399 -319 468 -373 l 125 -98 44 -20 44 -19 34 5 35 6 25 16 25 17 14 33 14 34 0 36 0 35 -57 -2 -58 -3 -3 21 -3 22 -92 84 c -51 47 -121 109 -157 139 -36 29 -71 59 -78 66 -7 7 -87 69 -178 138 l -164 126 0 12 0 13 36 37 36 37 26 0 25 0 -22 24 -22 24 228 203 c 126 112 277 245 334 295 l 106 92 17 36 17 36 -3 47 -3 46 -32 16 -33 16 0 13 0 12 -50 0 -50 0 0 -10 0 -10 -23 -9 c -12 -5 -36 -20 -52 -34 -17 -14 -64 -53 -105 -88 -102 -86 -299 -261 -509 -453 l -175 -159 -4 11 -4 12 -20 0 -20 0 -5 20 -5 20 -19 0 -19 0 0 15 0 15 -21 0 -21 0 -5 20 -5 20 -19 0 -18 0 -16 30 -16 30 -6 258 -6 258 -39 19 c -21 10 -38 22 -38 27 l 0 8 -67 0 -68 -1 -12 -10 z " fill="#000000"/>
      <path id="pIPEkL4vo" d="M 4047 5780 c -68 -12 -153 -39 -212 -68 l -50 -25 -8 -13 -8 -14 -19 0 -20 0 0 -10 0 -10 -12 0 c -17 -1 -68 -46 -68 -60 l 0 -10 -15 0 -15 0 -10 -24 -9 -24 -30 -22 -31 -21 0 -15 0 -14 -10 0 -10 0 0 -15 0 -15 -19 -19 -18 -18 -32 -89 -32 -88 -6 -61 -5 -60 21 -41 21 -41 64 -11 c 35 -7 77 -12 93 -12 l 30 0 14 18 c 8 9 20 28 26 42 l 12 25 4 57 3 56 34 68 34 67 56 56 55 56 65 32 c 36 18 93 39 125 48 l 60 17 116 5 115 6 85 -17 84 -17 62 -31 62 -30 55 -54 55 -54 26 -44 c 14 -24 36 -75 49 -114 l 24 -70 -4 -209 -4 -208 15 -52 16 -53 20 0 20 0 27 -17 c 15 -9 29 -18 30 -19 18 -12 -184 -234 -212 -234 -3 0 -21 -11 -41 -24 l -36 -25 -92 -30 c -51 -16 -121 -35 -157 -41 l -65 -12 -125 0 -125 0 -80 17 c -95 20 -157 45 -247 99 l -67 41 -70 68 c -39 38 -80 84 -91 103 l -22 34 -14 0 -14 0 0 23 0 22 -25 60 c -13 33 -30 84 -36 113 l -12 52 -39 0 -38 0 0 -44 0 -44 15 -33 14 -34 1 43 0 43 16 -15 15 -16 -6 -10 -6 -10 9 0 9 0 11 -37 11 -36 -5 -9 -5 -8 9 0 8 0 34 -66 c 19 -36 47 -80 63 -97 16 -18 36 -44 45 -59 l 16 -28 13 0 12 0 23 -30 22 -30 13 0 13 0 0 -9 0 -9 87 -45 88 -45 55 -15 c 30 -9 98 -21 150 -28 l 95 -11 134 5 133 5 10 10 10 10 14 -5 14 -5 72 22 73 22 90 46 90 46 85 86 86 85 42 80 43 80 26 100 26 100 4 173 3 172 -14 64 -15 64 -43 83 -42 84 -92 92 -91 92 -27 7 -26 6 0 9 0 9 -27 0 -28 1 -17 13 c -10 7 -18 17 -18 22 l 0 9 -62 12 -61 12 -6 10 -6 9 -84 16 -83 16 -48 0 -49 0 -25 -10 -25 -9 -6 9 -6 10 -77 -1 c -42 -1 -99 -5 -125 -9 z " fill="#000000"/>
      <path id="pDXczupQX" d="M 9256 5133 l -7 -26 11 -7 11 -7 -7 -26 -6 -27 12 0 11 0 -6 -10 -6 -10 11 -35 12 -35 9 0 10 0 -6 -10 -6 -10 11 0 11 0 -6 -10 -6 -10 11 0 11 0 -5 -9 -6 -9 16 -6 15 -6 -6 -9 -5 -10 10 -6 11 -7 -12 -14 -11 -14 31 0 31 0 0 33 0 32 -30 44 -30 44 -20 65 -20 64 0 29 0 29 -19 0 -19 0 -6 -27 z " fill="#000000"/>
      <path id="pJauDhEE3" d="M 9506 5138 c -3 -13 -6 -51 -6 -85 l 0 -62 40 -42 39 -41 75 4 76 3 26 27 27 26 5 51 5 51 -12 0 -11 0 0 -15 0 -15 -11 0 -11 0 5 -14 6 -15 -35 -30 -35 -31 -33 0 -33 0 -28 22 -27 21 -14 33 c -8 19 -14 44 -14 57 l 0 24 21 27 20 26 -34 0 -35 0 -6 -22 z " fill="#000000"/>
      <path id="p8wm4GAnX" d="M 9997 5060 l -5 -40 -30 -63 -29 -63 -32 -37 -33 -37 -63 -31 -62 -30 -64 -1 -64 0 -44 16 -44 16 -28 0 -29 0 0 -26 0 -26 15 12 15 12 0 -10 0 -11 66 -21 66 -20 30 0 c 17 0 58 7 92 16 l 61 15 45 26 c 58 34 95 75 130 144 l 29 56 15 67 c 9 37 16 69 16 72 0 2 -11 4 -24 4 l -23 0 -6 -40 z " fill="#000000"/>
      <path id="p1AuA7FTlI" d="M 9606 4578 c -3 -13 -6 -41 -6 -63 0 -76 -30 -292 -60 -446 -98 -486 -200 -786 -425 -1244 -140 -285 -302 -546 -466 -750 -40 -49 -76 -96 -82 -103 l -9 -12 18 0 19 0 81 103 c 337 425 624 995 789 1562 78 271 124 508 166 847 l 11 97 -5 16 c -4 8 -10 15 -16 15 l -9 0 -6 -22 z " fill="#000000"/>
      <path id="pWjFtJx1D" d="M 3295 3720 l -6 -10 -20 0 -19 0 0 -19 0 -19 20 -5 20 -5 0 9 0 9 19 0 19 0 16 25 16 25 -29 0 -30 0 -6 -10 z " fill="#000000"/>
      <path id="pDzpgBzNQ" d="M 7790 3325 l 0 -15 15 0 15 0 0 -11 c 0 -7 -8 -18 -17 -25 l -18 -14 50 2 50 3 3 38 3 37 -50 0 -51 0 0 -15 z " fill="#000000"/>
      <path id="p1AyZTfwAZ" d="M 7750 1825 l 0 -15 -9 0 -9 0 -1 -80 -1 -80 9 0 10 0 -6 -35 -6 -35 32 -65 32 -64 25 -20 c 14 -11 24 -23 23 -28 l -3 -8 42 -32 41 -31 58 -22 58 -22 63 -5 63 -6 65 18 66 18 57 38 57 38 32 45 c 18 25 43 69 56 98 l 23 53 8 53 7 54 -7 64 -7 64 -24 0 -24 0 1 -101 1 -100 -36 -74 -37 -74 -41 -36 -42 -36 -53 -26 -53 -25 -45 -6 -45 -5 -68 23 -67 23 -56 37 -55 38 -25 39 c -14 21 -36 63 -49 93 l -23 55 -5 98 -5 97 -13 0 -14 0 0 -15 z " fill="#000000"/>
      <path id="p96LF9PNp" d="M 8140 1795 l 0 -15 15 0 15 0 0 -11 c 0 -6 14 -24 30 -41 l 30 -30 0 -36 c 0 -20 -3 -47 -6 -59 l -6 -23 -33 -20 -32 -20 -22 0 c -12 0 -34 6 -50 14 l -27 15 -12 26 -12 26 0 37 0 38 27 42 27 42 13 0 13 0 0 10 0 10 -36 0 -35 0 -18 -10 -19 -9 -16 -41 -16 -40 0 -45 0 -45 16 -40 16 -40 33 -20 32 -20 62 0 62 0 28 14 28 15 19 28 19 28 0 75 0 75 -14 33 -13 32 -19 0 -18 0 -6 10 -6 10 -35 0 -34 0 0 -15 z " fill="#000000"/>
    </g>
  </g>
  <g id="lLBWEkCZBWWOZi0hDVu3hD" fill="rgb(237,142,0)" style="transform: none;">
    <g style="transform: none;" id="g92">
      <path id="pWOqMTlaE" d="M 9551 5965 c 0 -11 4 -29 9 -40 l 9 -20 0 25 1 25 -10 15 -10 15 1 -20 z " fill="#000000"/>
      <path id="pB6mc5XcU" d="M 8475 5813 c -67 -49 -585 -505 -727 -640 l -66 -63 -15 0 -15 0 -12 15 c -7 8 -19 15 -26 15 l -14 0 0 10 0 11 -17 6 c -15 6 -26 15 -74 58 l -16 15 -16 0 -17 0 0 20 0 20 -19 0 -19 0 -5 -20 -5 -20 7 0 c 4 0 13 -11 19 -25 l 12 -25 19 0 19 0 5 -20 5 -20 21 0 21 0 0 -15 0 -15 19 0 19 0 5 -20 5 -20 22 0 21 0 -6 -10 -6 -10 20 0 21 0 0 -10 0 -11 21 11 c 11 6 98 82 192 168 208 190 406 366 507 451 41 35 88 74 105 88 16 14 40 29 52 34 l 23 9 0 10 0 10 20 0 20 0 0 -15 0 -15 13 0 c 6 0 23 -9 36 -19 l 25 -19 13 5 13 5 0 20 0 19 -14 15 -15 14 -15 0 -16 0 0 10 0 10 -57 0 -58 0 -50 -37 z " fill="#000000"/>
      <path id="pJ5zwYx9y" d="M 9602 5640 c 0 -14 3 -34 8 -45 l 9 -20 -1 20 c 0 11 -4 31 -8 45 l -8 25 0 -25 z " fill="#000000"/>
      <path id="pE07tg9dO" d="M 9265 5124 c 3 -31 15 -84 25 -118 l 20 -63 29 -44 30 -43 -11 -14 -12 -13 59 -54 58 -54 16 20 16 20 45 -17 45 -17 92 0 92 0 65 32 64 31 33 37 32 37 29 63 30 63 5 40 6 40 8 0 9 0 0 28 c 0 15 -3 37 -6 50 l -6 22 -14 0 -14 0 0 -14 0 -14 -22 -5 c -13 -3 -52 -9 -88 -13 -36 -4 -69 -9 -75 -13 -5 -3 -20 -4 -32 -2 l -23 2 0 -30 c 0 -39 -16 -80 -42 -108 l -21 -22 -8 4 -8 5 -6 -10 -6 -10 -34 0 -33 0 -31 26 -31 26 5 8 5 8 -16 6 -17 6 5 49 5 48 34 31 34 31 -37 1 -37 0 -6 -10 -6 -10 -110 0 -109 0 0 10 0 10 -21 0 -21 0 7 -56 z " fill="#000000"/>
      <path id="po68keRsp" d="M 7965 5016 c -11 -8 -40 -33 -65 -57 l -44 -42 -2 -15 -3 -14 20 -5 c 10 -3 19 -9 19 -14 0 -4 74 -65 164 -134 91 -69 171 -131 178 -138 7 -7 42 -37 78 -66 36 -30 107 -92 158 -139 l 92 -85 0 -18 0 -19 26 -16 26 -17 7 12 8 12 17 -7 17 -7 25 13 24 13 0 23 0 23 -57 43 c -32 23 -59 45 -61 50 -2 4 -8 8 -13 8 -10 0 -24 10 -57 41 -35 32 -141 109 -150 109 -5 0 -12 7 -16 15 l -5 15 -16 0 -15 0 0 8 c 0 4 -92 77 -205 162 l -205 154 0 18 0 18 26 0 c 14 0 34 5 45 10 l 19 11 0 24 0 25 -8 0 c -4 0 -16 -6 -27 -14 z " fill="#000000"/>
      <path id="pSa3IFKjp" d="M 9618 4565 l -5 -25 8 -6 9 -5 0 30 c 0 38 -6 40 -12 6 z " fill="#000000"/>
      <path id="pnplIh9z7" d="M 9536 3993 c -3 -21 -9 -49 -12 -63 l -5 -25 9 15 c 11 16 27 110 19 110 -2 0 -7 -17 -11 -37 z " fill="#000000"/>
      <path id="pJZ4H3AsU" d="M 9080 2740 l -20 -40 10 0 10 0 20 40 20 40 -10 0 -10 0 -20 -40 z " fill="#000000"/>
      <path id="pdv2Y8fta" d="M 8929 2473 c -7 -16 -15 -31 -17 -35 l -4 -8 9 0 c 8 0 43 52 43 64 0 16 -18 3 -31 -21 z " fill="#000000"/>
      <path id="pE9aIGZsA" d="M 7756 1852 l -6 -11 -1 -83 0 -83 10 -46 c 12 -52 36 -107 70 -162 l 23 -38 57 -38 56 -38 67 -23 67 -22 73 3 73 4 55 27 56 27 42 36 41 36 37 75 38 75 0 97 0 97 9 6 8 6 -7 28 -7 28 -56 -7 c -31 -3 -87 -11 -126 -16 -38 -5 -91 -9 -117 -10 l -48 0 0 -18 0 -18 12 -12 c 7 -7 20 -12 29 -12 l 17 0 13 -32 14 -33 -1 -45 0 -45 -19 -28 -18 -28 -28 -15 -28 -14 -32 0 -32 0 -33 20 -33 21 -17 45 -17 45 12 40 12 40 20 20 20 20 29 6 30 6 0 18 0 19 -57 0 c -58 1 -239 23 -279 35 l -22 7 -6 -10 z " fill="#000000"/>
    </g>
  </g>
  <g id="l3cGtW6lzA41uXvIq8rtHPx" fill="rgb(0,151,162)" style="transform: none;">
    <g style="transform: none;" id="g124">
      <path id="p15EvTBaMJ" d="M 5400 9745 l 0 -35 48 0 47 1 -39 34 c -22 19 -43 35 -48 35 l -8 0 0 -35 z " fill="#000000"/>
      <path id="p0De71VBp" d="M 4725 9705 c -5 -2 -31 -6 -57 -10 l -48 -6 0 -16 0 -16 53 7 c 28 4 62 10 74 13 l 22 5 -14 14 c -7 8 -15 14 -17 13 -2 0 -7 -2 -13 -4 z " fill="#000000"/>
      <path id="pT1Jclov2" d="M 4533 9673 l -23 -4 0 -18 0 -18 32 6 33 7 3 17 3 17 -13 -1 c -7 -1 -23 -4 -35 -6 z " fill="#000000"/>
      <path id="p1GWCo3fv8" d="M 4323 9623 l -23 -4 0 -19 0 -19 32 10 c 18 5 34 9 35 9 2 0 3 7 3 15 l 0 15 -12 -1 c -7 -1 -23 -4 -35 -6 z " fill="#000000"/>
      <path id="pWaNFAU13" d="M 5900 9535 l 0 -15 15 0 15 0 0 -11 0 -11 25 6 24 6 91 -20 c 107 -24 100 -23 100 -7 l 0 13 -70 17 -69 17 -15 -6 -14 -5 -7 10 -6 11 -25 -6 -24 -6 0 11 0 11 -20 0 -20 0 0 -15 z " fill="#000000"/>
      <path id="pRwcm5kdp" d="M 3913 9488 l -23 -11 0 -14 c 0 -16 -1 -16 39 -2 l 31 11 0 14 0 14 -12 -1 c -7 0 -23 -5 -35 -11 z " fill="#000000"/>
      <path id="pj4L3rc6l" d="M 3437 9483 c -4 -3 -7 -15 -7 -25 l 0 -18 24 0 24 0 12 15 12 14 -7 11 -6 10 -23 0 c -12 0 -26 -3 -29 -7 z " fill="#000000"/>
      <path id="pEpMEcCJU" d="M 4767 9451 l -5 -21 7 -5 c 5 -2 68 -7 142 -11 l 134 -7 18 20 18 20 -123 7 c -68 4 -137 9 -154 12 l -31 6 -6 -21 z " fill="#000000"/>
      <path id="pwvX3sXDc" d="M 6280 9455 l 0 -14 103 -31 c 197 -61 410 -142 440 -168 l 17 -15 6 6 7 6 31 -16 c 17 -8 39 -22 49 -31 l 17 -15 6 6 7 6 95 -49 c 104 -54 112 -57 112 -37 l 0 14 -137 66 c -76 36 -159 75 -185 86 l -46 20 -6 -6 -6 -6 -17 15 c -21 18 -62 33 -81 29 l -14 -2 -12 16 -11 16 -25 1 -25 1 -15 12 c -14 12 -144 56 -257 89 l -53 15 0 -14 z " fill="#000000"/>
      <path id="pEsivcCma" d="M 3750 9421 c -47 -21 -121 -55 -165 -76 -44 -21 -85 -39 -92 -41 -6 -1 -47 -21 -90 -44 -43 -23 -98 -53 -123 -66 -25 -14 -63 -35 -85 -48 -22 -12 -67 -37 -100 -55 -33 -18 -80 -47 -105 -65 -25 -17 -52 -35 -62 -41 -75 -46 -418 -310 -433 -335 l -7 -11 5 -6 6 -5 132 106 c 219 175 399 294 654 429 160 85 493 243 553 261 l 22 7 0 15 0 14 -12 -1 c -7 0 -51 -17 -98 -38 z " fill="#000000"/>
      <path id="pOEcYx8xJ" d="M 5300 9457 c 0 -4 5 -17 11 -31 l 12 -25 134 -3 135 -3 9 17 c 5 9 9 21 9 25 l 0 9 -107 0 -108 -1 -47 9 -48 8 0 -5 z " fill="#000000"/>
      <path id="pmjV7FrgM" d="M 7210 9330 l -14 -9 18 -20 19 -21 14 0 14 0 5 15 6 15 -12 15 c -14 17 -29 19 -50 5 z " fill="#000000"/>
      <path id="p17IHc5FI5" d="M 1605 7859 c -250 -284 -517 -719 -689 -1122 -52 -121 -144 -390 -176 -512 -25 -95 -22 -80 -54 -236 l -26 -126 -16 -143 c -8 -78 -13 -144 -10 -147 6 -6 11 29 25 172 l 11 110 39 170 c 83 365 205 705 358 995 174 330 377 632 576 853 l 69 77 -13 0 -14 0 -80 -91 z " fill="#000000"/>
      <path id="pHteNHPPy" d="M 5343 6010 l -33 -20 0 -10 0 -10 29 0 c 16 0 36 3 45 6 l 16 6 0 24 0 24 -12 0 c -7 0 -28 -9 -45 -20 z " fill="#000000"/>
      <path id="pKjXp338m" d="M 5420 6006 l 0 -23 31 -7 c 17 -3 47 -6 65 -6 l 34 0 0 10 0 10 -32 20 -33 20 -32 0 -33 0 0 -24 z " fill="#000000"/>
      <path id="p1C97LWbAN" d="M 6460 6005 l 0 -25 29 0 30 0 6 -10 6 -10 45 0 45 0 -11 21 -12 21 -33 14 -34 14 -36 0 -35 0 0 -25 z " fill="#000000"/>
      <path id="pNFeWyxYT" d="M 5375 5851 c -11 -5 -29 -19 -40 -31 l -20 -22 -7 -296 c -4 -162 -9 -306 -13 -320 l -6 -24 23 -67 22 -66 7 45 8 45 1 275 1 275 8 53 8 53 16 16 16 16 50 5 50 4 35 -20 34 -20 11 11 11 11 0 23 0 23 -26 10 -25 10 -72 -1 -72 0 -20 -8 z " fill="#000000"/>
      <path id="pQuA9fxde" d="M 6440 5853 c -8 -3 -26 -15 -38 -27 l -24 -21 -110 -225 c -60 -124 -126 -262 -145 -308 l -37 -83 -34 -40 -34 -39 -196 2 -197 3 2 83 1 82 -7 0 c -4 0 -15 -6 -24 -13 l -18 -12 -6 -72 -6 -72 17 -26 16 -25 218 0 217 0 32 20 32 19 47 98 c 26 54 96 202 156 328 l 109 230 31 28 30 29 47 -5 c 25 -3 61 -9 79 -12 l 32 -7 0 30 0 30 -22 6 c -28 7 -147 7 -168 -1 z " fill="#000000"/>
      <path id="pBs0dnU2D" d="M 1662 4939 l 3 -914 15 -22 15 -23 29 -10 29 -10 44 0 45 0 29 17 29 18 -4 12 -5 13 11 0 11 0 -6 40 -5 40 10 0 10 0 -5 20 -5 20 10 0 9 0 -6 20 -6 20 11 0 12 0 -6 15 -5 15 10 0 11 0 -6 15 -5 15 10 0 11 0 -5 20 -5 20 10 0 10 0 -6 15 -5 15 10 0 10 0 -6 20 -6 20 10 0 10 0 -5 15 -6 15 12 0 12 0 -6 15 -5 15 10 0 11 0 -6 15 -5 15 10 0 11 0 -5 20 -5 20 10 0 10 0 -6 15 -5 15 10 0 11 0 -6 15 -5 15 10 0 11 0 -6 15 -5 15 10 0 11 0 -6 15 -5 15 10 0 11 0 -6 15 -5 15 10 0 10 0 -6 20 -6 20 10 0 10 0 -5 15 -6 15 11 0 10 0 -5 15 -6 15 11 0 10 0 -5 15 -6 15 11 0 10 0 -5 15 -6 15 11 0 10 0 -5 15 -6 15 11 0 10 0 -5 15 -6 15 12 0 11 0 -6 10 -6 10 11 0 12 0 -6 15 -5 15 10 0 11 0 -6 15 -5 15 10 0 11 0 -6 15 -5 15 9 0 9 0 -5 15 -6 15 11 0 10 0 -5 15 -6 15 12 0 11 0 -6 10 -6 10 10 0 10 0 -5 15 -6 15 12 0 11 0 -6 10 -6 10 11 35 12 35 8 0 9 0 -5 15 -6 15 11 0 10 0 -5 15 -6 15 10 0 10 0 -5 20 -5 20 15 6 16 6 -6 14 -5 14 11 0 10 0 -5 15 -6 15 11 0 10 0 -5 15 -6 15 11 0 10 0 -5 15 -6 15 10 0 10 0 -5 20 -5 20 15 6 16 6 -6 14 -5 14 11 0 10 0 -5 14 -5 13 15 6 15 6 6 -20 6 -19 10 5 9 6 0 30 0 29 -12 23 c -7 12 -17 25 -22 28 -4 4 -25 44 -46 90 l -38 84 -41 3 -41 3 -18 -43 c -11 -24 -38 -106 -62 -183 -23 -77 -60 -195 -81 -263 -21 -67 -57 -191 -80 -275 -23 -83 -50 -181 -60 -217 l -18 -65 -2 65 c -1 36 0 275 1 532 l 2 467 -25 25 -26 26 -64 0 c -36 0 -79 3 -96 6 l -31 7 2 -914 z " fill="#000000"/>
      <path id="p1DThDICIT" d="M 1980 5575 l 0 -35 35 0 35 0 0 35 0 35 -6 0 c -4 0 -13 -8 -20 -17 l -13 -18 -1 18 0 17 -15 0 -15 0 0 -35 z " fill="#000000"/>
      <path id="popirooIP" d="M 6423 5070 l -33 -20 0 -10 0 -10 29 0 c 16 0 36 3 45 6 l 16 6 0 24 0 24 -12 0 c -7 0 -28 -9 -45 -20 z " fill="#000000"/>
      <path id="pgLqycFK1" d="M 6500 5066 l 0 -24 16 -6 c 9 -3 33 -6 55 -6 l 39 0 0 7 c 0 3 -7 14 -16 24 l -16 18 -13 -5 -13 -5 -7 10 -6 11 -20 0 -19 0 0 -24 z " fill="#000000"/>
      <path id="pRictky9G" d="M 6712 4924 l 3 -39 43 -3 44 -3 -6 10 c -4 5 -25 24 -47 42 l -40 32 3 -39 z " fill="#000000"/>
      <path id="pPXxdMbeW" d="M 6413 4850 c -37 -22 -38 -27 -19 -53 l 14 -18 49 27 48 27 27 -6 28 -7 112 -96 c 62 -52 167 -142 233 -198 l 120 -103 13 5 12 4 0 23 0 23 -117 98 c -64 55 -157 134 -207 178 -50 43 -104 87 -121 97 l -30 19 -65 0 -65 0 -32 -20 z " fill="#000000"/>
      <path id="p8MNEDQiB" d="M 5333 4560 l -33 -20 0 -10 0 -10 35 0 35 0 0 30 c 0 17 -1 30 -2 30 -2 0 -18 -9 -35 -20 z " fill="#000000"/>
      <path id="pnFQUEsxG" d="M 6530 4547 l 0 -34 18 -16 19 -17 15 0 16 0 5 -20 5 -20 21 0 21 0 0 -15 0 -16 23 -9 22 -9 -687 0 -688 -1 0 15 0 15 -21 0 -21 0 6 -31 c 3 -17 6 -45 6 -61 l 0 -29 28 21 29 21 712 2 712 2 9 15 10 15 -32 25 c -18 14 -74 60 -125 103 -51 42 -95 77 -98 77 -3 0 -5 -15 -5 -33 z " fill="#000000"/>
      <path id="pgnITKy6J" d="M 623 4535 c 3 -22 11 -89 17 -150 45 -448 235 -1066 463 -1510 69 -133 199 -353 282 -476 30 -45 55 -85 55 -90 0 -5 3 -9 8 -9 4 0 18 -17 32 -38 14 -20 37 -50 52 -67 16 -16 28 -33 28 -36 0 -3 10 -17 23 -31 12 -14 36 -42 52 -63 17 -20 45 -50 63 -68 17 -17 33 -35 33 -41 1 -6 35 -42 75 -80 l 74 -69 6 5 5 6 -84 86 c -46 47 -82 88 -80 90 2 2 -10 15 -26 29 l -30 25 5 5 6 5 -31 23 -30 22 5 8 5 8 -26 17 -25 16 5 8 5 8 -26 21 c -15 12 -23 21 -18 21 l 9 1 -24 19 -23 20 8 0 9 1 -24 19 -23 20 8 0 9 1 -22 18 -22 19 6 6 6 6 -17 6 -16 6 6 9 5 9 -15 6 -16 6 6 9 5 9 -15 6 -16 6 6 9 5 9 -15 6 -16 6 6 9 5 9 -15 6 -16 6 6 9 5 9 -15 6 -16 6 6 9 5 9 -15 6 -16 6 6 9 5 9 -11 0 -11 0 6 10 6 10 -15 6 -16 6 6 9 5 9 -11 0 -11 0 6 10 6 10 -15 6 -16 6 6 9 5 9 -11 0 -11 0 6 10 6 9 -20 20 -19 19 5 6 6 6 -12 0 -12 0 6 10 6 9 -20 20 -19 19 5 6 6 6 -12 0 -12 0 6 10 6 10 -11 0 -11 0 6 10 6 10 -11 0 -11 0 6 10 6 10 -11 0 -11 0 6 10 6 10 -11 0 -11 0 6 10 6 10 -11 0 -11 0 6 10 6 10 -11 0 -11 0 6 10 6 10 -11 0 -11 0 6 10 6 10 -11 0 -11 0 6 10 6 10 -11 0 -11 0 6 10 6 10 -11 0 -11 0 6 10 6 10 -11 0 -11 0 6 10 6 10 -11 0 -11 0 6 10 6 10 -11 0 -11 0 6 10 6 10 -10 0 -10 0 5 15 6 15 -12 0 -11 0 6 10 6 10 -11 0 -11 0 6 10 6 10 -11 0 -12 0 6 15 5 15 -10 0 -10 0 6 10 6 10 -10 0 -10 0 5 15 6 15 -12 0 -11 0 6 10 6 10 -10 0 -10 0 5 15 6 15 -12 0 -11 0 6 10 6 10 -10 0 -10 0 5 15 6 15 -12 0 -11 0 6 10 6 10 -10 0 -10 0 5 15 6 15 -12 0 -11 0 6 10 6 10 -10 0 -10 0 5 15 6 15 -11 0 -10 0 5 15 6 15 -11 0 -10 0 5 15 6 15 -11 0 -10 0 5 15 6 15 -11 0 -10 0 5 15 6 15 -11 0 -10 0 5 15 6 15 -12 0 -12 0 6 15 5 15 -10 0 -10 0 6 20 6 20 -10 0 -10 0 5 15 6 15 -11 0 -10 0 5 15 6 15 -12 0 -11 0 6 20 6 20 -9 0 -10 0 5 20 5 20 -11 0 -10 0 5 15 6 15 -12 0 -11 0 6 20 6 20 -11 0 -11 0 6 20 6 20 -11 0 -11 0 6 20 6 20 -11 0 -11 0 6 20 6 20 -11 0 -10 0 6 25 6 25 -12 0 -11 0 6 20 6 20 -11 0 -12 0 7 30 7 30 -12 0 -11 0 6 20 6 20 -11 0 -12 0 4 25 5 25 -7 0 -7 0 -13 108 c -6 59 -11 112 -9 117 1 6 -1 18 -6 28 l -7 17 4 32 5 32 -15 16 -15 15 6 -40 z " fill="#000000"/>
      <path id="p4joFNxRg" d="M 2130 2835 l 0 -35 35 0 35 0 0 35 0 35 -21 0 -21 0 6 -17 6 -18 -14 18 c -7 9 -16 17 -20 17 l -6 0 0 -35 z " fill="#000000"/>
      <path id="pab5ZfgYL" d="M 1910 1775 c 13 -14 28 -25 33 -25 l 10 0 -23 25 c -13 14 -28 25 -33 25 l -10 0 23 -25 z " fill="#000000"/>
    </g>
  </g>
  <g id="l3rBfsgvMUWNiIMODMOwZho" fill="rgb(175,134,0)" style="transform: none;">
    <g style="transform: none;" id="g147">
      <path id="pIM2zVwwS" d="M 7090 9125 c 0 -2 37 -22 83 -45 114 -58 207 -113 207 -122 0 -4 4 -8 9 -8 13 0 287 -186 345 -234 l 49 -41 -4 15 -5 15 -85 63 c -46 34 -95 71 -107 82 -13 11 -28 20 -33 20 -5 0 -9 5 -9 10 l 0 10 -15 0 -15 0 0 10 0 10 -15 0 -15 0 0 9 0 9 -25 6 -26 7 6 9 6 10 -20 0 -20 0 -15 15 c -8 8 -20 15 -26 15 l -11 0 5 9 5 8 -40 12 -40 12 6 9 6 10 -23 9 c -13 5 -36 12 -51 16 l -28 6 6 9 6 9 -22 11 c -19 11 -89 22 -89 15 z " fill="#000000"/>
      <path id="pdpXfPBEE" d="M 8545 7940 c 5 -8 45 -58 90 -110 181 -212 320 -406 457 -641 203 -345 419 -956 482 -1359 9 -58 21 -127 26 -155 l 9 -50 -5 80 -5 80 -25 130 c -36 184 -57 264 -125 480 l -61 190 -65 165 c -71 180 -124 289 -216 450 -95 167 -265 416 -335 493 -14 15 -22 27 -18 27 4 0 -6 12 -23 26 -17 14 -30 29 -28 32 1 4 -17 25 -40 46 l -43 38 5 7 4 8 -46 38 -47 39 9 -14 z " fill="#000000"/>
      <path id="pkwx4hWlK" d="M 3129 5825 l -37 -24 -7 -28 -8 -28 1 -495 c 1 -476 7 -760 18 -846 l 5 -40 43 -47 43 -47 85 0 85 0 5 98 6 97 -6 508 -5 507 11 0 12 0 -1 133 -1 132 -12 35 -12 34 -32 8 -32 9 0 9 0 10 -62 -1 -63 0 -36 -24 z " fill="#000000"/>
      <path id="pKMd4fXFA" d="M 7216 5840 l -29 -9 -18 -20 -19 -20 0 -31 0 -30 14 0 15 0 6 20 7 21 26 17 c 15 9 30 21 34 27 l 7 10 12 -12 12 -12 23 9 24 10 0 -9 c 0 -4 18 -16 40 -27 l 40 -19 -6 -17 -5 -18 8 0 8 0 -3 -132 -4 -131 7 -34 6 -33 24 0 25 0 0 14 0 14 -14 5 -15 6 -3 181 -3 182 -28 24 -28 24 -67 -1 -67 -1 -29 -8 z " fill="#000000"/>
      <path id="pR51zYIPI" d="M 8470 5790 l 0 -30 35 22 c 19 13 35 26 35 31 l 0 7 -35 0 -35 0 0 -30 z " fill="#000000"/>
      <path id="pA4ysg81r" d="M 8610 5810 l 0 -10 21 0 20 0 -6 -10 -6 -10 20 0 19 0 5 -12 5 -13 1 33 1 32 -40 0 -40 0 0 -10 z " fill="#000000"/>
      <path id="pt1GDfcqc" d="M 4190 5783 l 0 -18 27 -12 c 33 -16 55 -16 104 -1 l 39 11 0 19 0 18 -85 0 -85 0 0 -17 z " fill="#000000"/>
      <path id="poBbTwRPJ" d="M 4020 5778 c -25 -5 -49 -14 -54 -19 -6 -5 -17 -9 -26 -9 -9 0 -35 -9 -58 -20 -22 -11 -48 -20 -57 -20 l -15 0 0 -9 0 -10 -22 -7 c -13 -4 -35 -16 -50 -27 l -28 -21 0 -18 0 -18 -21 0 c -11 0 -29 -5 -40 -10 l -19 -11 0 -14 0 -15 -13 0 -14 0 -16 -18 -17 -19 0 -21 0 -22 -20 0 -20 0 0 -13 0 -12 -20 -13 -20 -12 0 -23 0 -22 -19 -12 -19 -12 -22 -73 c -12 -40 -27 -79 -33 -86 l -11 -14 -8 -211 -8 -211 9 -5 c 5 -3 11 -15 14 -26 l 5 -20 1 38 1 37 8 0 8 0 18 -71 18 -71 40 -81 41 -80 76 -80 c 85 -89 127 -121 227 -171 l 69 -34 61 -16 62 -16 102 -10 102 -11 127 10 c 152 13 151 13 267 51 l 93 31 36 25 c 20 13 38 24 41 24 9 0 36 23 96 82 l 58 57 40 62 c 22 34 40 68 40 75 l 0 14 -35 14 -35 15 0 12 0 11 -25 -4 -24 -5 -13 36 -12 36 -1 180 0 180 -10 15 -9 15 -7 -25 -7 -25 -1 -105 -1 -106 -15 -59 -16 -59 -25 -47 -26 -47 -48 -50 c -27 -28 -66 -61 -87 -74 l -38 -24 -85 -29 -85 -28 -120 -5 -121 -4 -92 16 -91 15 -41 21 -40 20 0 10 0 10 -15 0 -15 0 0 10 0 10 -17 0 -18 1 -20 17 c -12 9 -24 25 -28 35 -3 9 -11 17 -16 17 l -9 0 -7 30 c -4 17 -10 30 -14 30 -4 0 -20 28 -36 63 l -29 62 -4 163 -4 162 -13 0 -13 0 -5 13 -4 12 -7 -31 -7 -32 -18 -16 -17 -16 -62 12 -62 11 -20 40 -21 39 7 36 c 4 21 20 75 37 121 l 30 84 18 18 19 19 0 15 0 15 10 0 10 0 0 14 0 15 31 21 30 22 10 25 9 24 10 -6 10 -6 9 23 c 6 13 10 19 10 14 l 1 -9 21 27 21 26 9 -6 9 -5 6 15 6 16 9 -5 8 -6 20 20 19 19 6 -5 6 -6 0 12 0 12 10 -6 10 -6 0 11 0 11 10 -6 10 -6 0 11 0 11 10 -6 10 -6 0 11 0 11 10 -6 10 -6 0 11 0 11 20 -6 20 -6 0 11 0 11 10 -6 10 -6 0 11 0 11 20 -6 20 -6 0 11 0 11 20 -6 20 -6 0 11 0 12 35 -6 35 -7 0 11 0 10 15 0 15 0 0 15 0 15 -42 -1 c -24 -1 -63 -6 -88 -11 z " fill="#000000"/>
      <path id="pZT0TRETS" d="M 4370 5776 l 0 -16 15 0 15 0 0 -11 0 -11 30 6 30 6 0 -11 0 -11 25 4 25 5 0 -10 0 -9 20 5 20 5 0 -8 0 -8 33 -7 c 17 -4 37 -12 44 -17 l 12 -10 22 7 21 7 -4 -13 -4 -13 34 -19 34 -18 15 5 15 6 -5 -14 -6 -15 30 1 29 1 0 21 0 21 -18 10 c -142 76 -243 110 -364 122 l -68 6 0 -17 z " fill="#000000"/>
      <path id="pgnNkHp4M" d="M 8352 5718 l -12 -12 0 -22 0 -23 -32 -3 -33 -3 -3 -34 -3 -33 28 20 c 15 12 53 44 83 71 l 55 50 -35 1 -36 0 -12 -12 z " fill="#000000"/>
      <path id="pMk12w7zB" d="M 8187 5573 c -4 -3 -7 -19 -7 -34 l 0 -28 -37 -3 -38 -3 -3 -34 -3 -33 28 21 c 15 11 53 43 83 70 l 55 50 -36 1 c -20 0 -39 -3 -42 -7 z " fill="#000000"/>
      <path id="p12lVjtHYT" d="M 8004 5406 c -3 -8 -4 -24 -2 -36 l 3 -22 40 36 40 35 -38 1 -38 0 -5 -14 z " fill="#000000"/>
      <path id="p1B8KpKp3r" d="M 7920 5309 l 0 -30 30 21 c 16 11 32 25 35 30 l 6 10 -35 0 -36 0 0 -31 z " fill="#000000"/>
      <path id="peEnYVi0U" d="M 5100 5226 l 0 -14 -12 -5 -13 -5 18 -1 17 -1 0 -15 0 -15 -10 0 c -5 0 -10 -4 -10 -10 l 0 -10 18 0 17 0 -13 -9 -14 -8 12 -42 11 -41 14 0 15 0 0 75 0 75 -10 0 -10 0 0 20 0 20 -15 0 -15 0 0 -14 z " fill="#000000"/>
      <path id="pH2FmEZPj" d="M 9607 4431 c -4 -18 -7 -43 -6 -55 l 1 -21 9 45 c 5 25 7 49 6 55 l -4 10 -6 -34 z " fill="#000000"/>
      <path id="pxlcUTQS1" d="M 9561 4114 c -6 -38 -15 -80 -18 -94 l -6 -25 6 6 c 9 8 39 157 35 171 l -4 11 -13 -69 z " fill="#000000"/>
      <path id="p184OkRxbI" d="M 9511 3883 c -35 -164 -143 -504 -218 -688 -68 -168 -177 -396 -267 -557 -134 -240 -254 -421 -385 -578 -70 -84 -80 -100 -61 -100 l 9 0 73 93 c 41 50 89 115 108 142 211 313 327 522 478 861 l 80 181 55 160 c 53 154 110 349 141 481 l 14 62 -7 0 -8 0 -12 -57 z " fill="#000000"/>
      <path id="p1Hh2ppHLY" d="M 7155 3893 c 3 -16 11 -32 16 -37 l 9 -10 0 37 0 37 -16 0 -16 0 7 -27 z " fill="#000000"/>
      <path id="p1FKezJApR" d="M 3322 3843 c -6 -27 -13 -64 -17 -85 l -7 -36 -21 -6 c -12 -3 -41 -6 -64 -6 l -43 0 0 -14 0 -14 31 -7 31 -7 43 6 42 7 20 22 20 22 17 70 c 9 39 16 76 16 83 l 0 12 -29 0 -29 0 -10 -47 z " fill="#000000"/>
      <path id="pCbOP1s6D" d="M 8120 1800 l 0 -20 28 0 28 0 12 -12 12 -12 0 17 0 17 15 0 15 0 0 15 0 15 -55 0 -55 0 0 -20 z " fill="#000000"/>
    </g>
  </g>
  <g id="l3oFnyM0mwPM5wXpWkyO4bR" fill="rgb(0,108,117)" style="transform: none;">
    <g style="transform: none;" id="g184">
      <path id="phOKbj1bH" d="M 5065 9827 c -56 -19 -103 -44 -149 -80 l -39 -31 -37 -58 -38 -58 -17 -70 -17 -70 5 -14 6 -14 136 -7 137 -8 37 41 38 41 27 7 27 6 37 -5 37 -6 37 -42 37 -43 115 -4 115 -4 27 6 26 7 -4 57 -4 57 -26 57 -26 57 -42 45 -43 46 -18 0 -19 0 0 16 0 15 -66 31 -67 31 -96 4 -96 3 -40 -13 z " fill="#000000"/>
      <path id="pYkSET7r1" d="M 4730 9702 l 0 -8 -35 4 -35 4 0 -8 0 -9 -53 -3 -52 -2 -3 -10 -4 -10 -8 5 -9 6 -95 -22 -96 -22 0 -8 0 -8 -13 5 -14 5 -189 -62 -189 -61 -6 -10 c -3 -5 -10 -9 -15 -8 -14 2 -84 -22 -84 -29 0 -4 -10 -8 -22 -8 l -23 -2 -3 -11 -4 -10 -9 6 -9 5 0 -12 0 -12 -6 6 -6 5 -29 -10 -29 -10 0 -10 0 -9 -10 6 -10 6 0 -11 0 -11 -10 6 -10 6 0 -11 0 -11 -10 6 -10 6 0 -11 0 -11 -10 6 -10 6 0 -10 0 -10 -15 5 -15 6 0 -12 0 -11 -10 6 -10 6 0 -11 0 -11 -10 6 -10 6 0 -11 0 -11 -10 6 -10 6 0 -8 0 -9 -100 -49 c -55 -27 -100 -53 -100 -57 0 -12 -6 -14 164 67 86 41 220 103 299 136 l 142 61 161 54 161 54 141 34 c 77 19 188 43 246 52 l 106 18 0 18 c 0 10 -2 18 -5 18 -3 0 -5 -4 -5 -8 z " fill="#000000"/>
      <path id="peNSTWvtF" d="M 5895 9541 l -5 -10 7 -4 c 5 -3 37 -10 73 -17 179 -32 440 -103 634 -174 55 -20 101 -35 103 -32 2 2 -42 20 -98 40 l -102 37 -11 15 -12 15 -46 3 -47 4 -17 16 -16 17 -20 -7 -20 -6 -8 12 -7 11 -74 19 -74 19 -22 -5 -23 -6 0 10 0 10 -20 -5 -20 -5 0 10 0 10 -20 -5 -20 -5 0 9 0 10 -25 -5 -25 -4 0 10 0 10 -20 -5 -20 -5 0 11 0 11 -19 0 -20 0 -6 -9 z " fill="#000000"/>
      <path id="p1CTeNgUf5" d="M 6721 9296 c 2 -2 63 -30 134 -61 72 -32 157 -71 190 -89 72 -37 95 -47 95 -41 0 8 -176 94 -298 146 -105 45 -132 55 -121 45 z " fill="#000000"/>
      <path id="p1Gv0kInF6" d="M 3260 9180 l 0 -13 -6 6 -6 5 -19 -19 -20 -20 -9 6 -10 6 0 -12 0 -12 -7 6 -6 7 -22 -24 -21 -23 -17 3 -17 2 0 -9 0 -10 -10 6 -10 6 0 -10 0 -11 -15 0 -15 0 0 -11 0 -10 -9 5 -9 6 -6 -16 -6 -15 -7 4 -8 3 -22 -23 -22 -23 12 0 c 7 0 29 11 50 25 20 14 89 54 152 89 l 115 63 -15 13 -15 12 0 -12 z " fill="#000000"/>
      <path id="pNc6g6h3N" d="M 4768 9052 l -48 -16 0 -13 0 -13 50 0 50 0 0 30 c 0 17 -1 30 -2 29 -2 0 -24 -8 -50 -17 z " fill="#000000"/>
      <path id="pAhuvMXAG" d="M 5560 9020 l 0 -30 45 0 45 0 0 16 0 15 -35 15 c -19 7 -39 14 -45 14 l -10 0 0 -30 z " fill="#000000"/>
      <path id="p3jJF3G7k" d="M 5710 8981 c 0 -11 3 -26 6 -35 l 6 -16 45 0 44 0 -3 16 -3 16 -47 19 -48 19 0 -19 z " fill="#000000"/>
      <path id="pbPSA1Ou4" d="M 2911 8969 l -11 -19 12 0 c 7 0 21 7 31 14 l 17 14 -18 4 -19 5 -12 -18 z " fill="#000000"/>
      <path id="p6ojAPXTe" d="M 5880 8900 l 0 -30 45 0 45 0 0 16 0 15 -35 15 c -19 7 -39 14 -45 14 l -10 0 0 -30 z " fill="#000000"/>
      <path id="p8Xg12TqQ" d="M 4323 8895 l -33 -14 0 -16 0 -15 35 0 35 0 0 30 c 0 17 -1 30 -2 30 -2 -1 -18 -7 -35 -15 z " fill="#000000"/>
      <path id="p177VLBCV6" d="M 6010 8850 l 0 -30 40 0 40 0 0 -15 0 -15 40 0 40 0 0 -15 0 -15 40 0 40 0 0 -15 0 -15 46 0 45 0 -3 16 -3 17 -153 58 c -85 33 -158 59 -163 59 l -9 0 0 -30 z " fill="#000000"/>
      <path id="pL7BsteAM" d="M 2050 8042 l 0 -42 45 0 45 0 0 19 0 19 -27 7 c -16 3 -36 14 -45 22 l -18 16 0 -41 z " fill="#000000"/>
      <path id="p4R452s7d" d="M 2183 8048 l -33 -11 0 -18 0 -19 35 0 35 0 0 30 c 0 17 -1 30 -2 29 -2 -1 -18 -6 -35 -11 z " fill="#000000"/>
      <path id="pUym4RfwV" d="M 1744 6016 c -17 -8 -41 -24 -52 -36 l -21 -22 -6 -40 -7 -39 7 -59 7 -60 30 25 30 25 44 0 45 0 24 -24 24 -25 -1 -701 -1 -701 11 -11 10 -10 5 18 c 3 11 8 60 12 109 9 128 31 252 70 390 19 66 47 167 63 225 42 149 176 578 195 623 l 17 39 11 -4 12 -4 37 -83 c 21 -46 42 -86 46 -90 5 -3 15 -18 23 -33 8 -16 18 -28 23 -28 l 8 0 0 30 0 30 -35 87 c -33 82 -56 136 -75 173 l -7 15 -40 3 -40 3 -5 -18 c -3 -10 -45 -144 -93 -298 -49 -154 -114 -370 -146 -480 l -59 -200 3 475 4 475 -9 39 -9 39 16 16 15 15 0 -32 0 -32 15 0 15 0 0 -20 0 -20 21 0 20 0 -6 48 c -4 26 -11 61 -16 78 l -10 31 -22 21 c -12 12 -39 28 -59 37 l -37 15 -38 0 -38 -1 -31 -13 z " fill="#000000"/>
      <path id="p1C3iDZC77" d="M 5370 6019 l 0 -10 -10 6 -10 6 0 -11 0 -11 -9 5 -8 5 -24 -25 -24 -26 -3 -328 -3 -328 9 -83 10 -84 13 -30 13 -30 3 30 c 2 17 7 173 11 347 l 7 318 27 26 27 27 54 5 55 4 33 -16 c 17 -9 36 -16 41 -16 l 8 0 0 70 0 70 -28 31 -28 31 -39 4 -40 3 -3 11 -4 10 -39 0 -39 0 0 -11 z " fill="#000000"/>
      <path id="pWq56IuOh" d="M 6391 6013 l -33 -16 -27 -40 c -14 -21 -94 -181 -176 -356 l -150 -316 -194 -3 -194 -2 -14 -12 -14 -11 3 -86 3 -86 227 -3 226 -2 34 39 34 40 37 83 c 19 46 85 184 145 308 l 110 225 26 24 25 24 49 5 50 4 17 -10 18 -9 18 4 19 5 0 59 0 58 -12 26 -11 25 -24 0 -24 0 -5 13 -5 13 -29 -4 -30 -4 0 11 0 11 -32 0 -33 0 -34 -17 z " fill="#000000"/>
      <path id="pcwysb3bM" d="M 646 5133 c 4 -10 9 -38 12 -62 l 4 -43 -13 -25 -13 -25 -28 -14 -27 -14 -32 0 -31 0 -34 34 -34 34 0 51 0 51 -20 0 -20 0 0 -25 0 -25 -10 0 -10 0 0 -40 0 -40 14 0 15 0 3 -27 3 -27 40 -23 40 -23 38 0 37 0 22 13 c 31 17 48 34 48 46 l 0 11 15 0 15 0 0 25 0 25 10 0 10 0 0 48 c 0 26 -3 57 -6 70 l -6 22 -25 0 -25 0 8 -17 z " fill="#000000"/>
      <path id="pYVeZBLCe" d="M 6450 5079 l 0 -10 -10 6 -10 6 0 -10 0 -11 -11 3 -11 2 -20 -27 -21 -27 -5 -74 -4 -73 16 -32 17 -32 9 0 c 5 0 24 9 42 20 l 33 20 35 0 35 0 30 -19 c 17 -10 71 -54 121 -97 210 -182 333 -284 343 -284 l 11 0 0 93 0 92 -19 30 c -10 17 -34 46 -52 66 -45 48 -204 189 -214 189 -4 0 -26 22 -50 48 -24 27 -62 61 -85 77 l -41 29 -26 1 -27 1 -4 12 -4 12 -39 0 -39 0 0 -11 z " fill="#000000"/>
      <path id="pYJRp3n2n" d="M 870 5035 l 0 -15 -15 0 -15 0 0 -25 0 -25 -10 0 -10 0 0 -25 0 -25 -10 0 -10 0 0 -45 0 -45 33 1 c 17 1 45 4 61 8 l 30 6 -31 30 -31 30 18 35 c 10 20 21 53 25 73 l 7 37 -21 0 -21 0 0 -15 z " fill="#000000"/>
      <path id="p1HAta75An" d="M 595 4770 c -16 -4 -58 -8 -92 -9 l -63 -1 0 -15 0 -14 36 -7 36 -7 59 7 59 6 35 14 35 15 0 10 0 11 -37 -1 c -21 -1 -51 -5 -68 -9 z " fill="#000000"/>
      <path id="puTpsUYVQ" d="M 5346 4564 c -9 -8 -16 -12 -16 -8 l 0 6 -15 -12 -15 -12 -11 -41 -11 -41 7 -62 6 -62 27 14 27 14 706 0 706 0 6 6 6 7 -29 27 c -16 15 -37 30 -45 34 l -15 5 0 16 0 15 -21 0 -21 0 -5 20 -5 20 -18 0 -17 0 -15 18 c -8 9 -18 25 -21 35 l -6 17 -595 0 -595 0 -15 -16 z " fill="#000000"/>
      <path id="pkdBBHoYi" d="M 1877 3672 l -17 -19 7 -6 6 -7 44 0 43 0 0 19 0 19 -16 6 c -9 3 -24 6 -33 6 l -18 0 -16 -18 z " fill="#000000"/>
      <path id="p2ljEEuO4" d="M 1777 1910 c 29 -30 54 -52 57 -49 3 2 -21 26 -52 53 l -57 49 52 -53 z " fill="#000000"/>
      <path id="pfdYQCYdw" d="M 1882 1803 c 44 -44 58 -41 22 5 l -25 32 -17 0 -17 0 37 -37 z " fill="#000000"/>
      <path id="pGiL44yzw" d="M 2730 1716 l 0 -64 -20 -64 c -11 -34 -20 -71 -20 -80 l 0 -18 -15 0 -15 0 0 -36 0 -36 13 4 c 6 3 27 24 44 47 l 32 42 21 65 20 66 0 69 0 69 -30 0 -30 0 0 -64 z " fill="#000000"/>
      <path id="puegpqq5F" d="M 2010 1693 c 0 -10 3 -28 6 -40 l 6 -23 14 0 14 0 0 40 0 40 -20 0 -20 0 0 -17 z " fill="#000000"/>
      <path id="pYEhgROBT" d="M 2230 1658 c 0 -24 5 -60 11 -81 l 10 -38 41 -29 41 -30 58 0 58 0 26 12 25 11 0 13 0 13 16 9 16 9 5 46 6 47 -10 0 -10 0 -14 -26 c -7 -14 -26 -37 -42 -50 l -29 -24 -34 0 -35 0 -25 16 -25 17 -15 28 -14 28 0 36 0 35 -30 0 -30 0 0 -42 z " fill="#000000"/>
      <path id="pJzFgjH57" d="M 2155 1394 l 40 -36 3 22 c 2 12 1 28 -2 36 l -5 14 -38 0 -38 -1 40 -35 z " fill="#000000"/>
      <path id="p17UTeTxRy" d="M 2570 1400 l 0 -10 -25 -6 -25 -6 0 -8 0 -9 -55 -6 -55 -7 0 -21 0 -20 54 6 54 5 54 26 55 26 18 20 18 20 -46 0 -47 0 0 -10 z " fill="#000000"/>
      <path id="pFKqQHYns" d="M 2250 1350 c 0 -14 32 -28 79 -36 l 41 -7 0 20 0 20 -37 7 c -21 3 -48 6 -60 6 l -23 0 0 -10 z " fill="#000000"/>
      <path id="ptHgEN9gN" d="M 2640 1295 l 0 -16 98 -63 c 99 -65 330 -196 344 -196 5 0 8 6 8 14 l 0 14 -72 37 c -110 58 -278 159 -322 194 -21 17 -43 31 -47 31 l -9 0 0 -15 z " fill="#000000"/>
      <path id="pOaeMUg5s" d="M 3220 965 l 0 -15 68 -34 c 37 -18 77 -37 90 -40 l 22 -7 0 14 0 15 -86 41 c -47 22 -88 41 -90 41 -2 0 -4 -7 -4 -15 z " fill="#000000"/>
      <path id="p1CrYjsTbj" d="M 3450 856 l 0 -14 28 -10 c 15 -5 35 -13 45 -17 l 17 -7 0 16 0 16 -36 15 c -20 8 -40 15 -45 15 l -9 0 0 -14 z " fill="#000000"/>
    </g>
  </g>
  <g id="lICQ230tDe92gA0bYrkliU" fill="rgb(156,65,0)" style="transform: none;">
    <g style="transform: none;" id="g199">
      <path id="p2qNoN02r" d="M 7205 6012 c -41 -25 -51 -40 -64 -90 l -12 -42 7 -75 7 -75 18 0 19 0 0 10 c 0 6 -1 11 -2 13 -5 5 37 44 59 56 l 22 11 47 0 47 0 38 -40 c 21 -22 41 -40 44 -40 l 5 0 0 88 0 87 -18 35 -17 35 -34 22 -34 23 -51 0 -51 0 -30 -18 z " fill="#000000"/>
      <path id="p1AAZB1Fdq" d="M 8490 6011 c -20 -11 -67 -48 -105 -83 -39 -35 -146 -131 -240 -213 -93 -83 -235 -210 -315 -283 -80 -74 -152 -138 -161 -142 l -16 -9 -103 79 -102 79 -14 -6 -14 -5 0 -83 0 -84 10 -25 10 -26 9 0 c 5 0 57 -36 116 -81 l 107 -80 22 18 c 11 11 75 69 141 129 293 269 633 566 687 600 l 38 24 25 0 25 0 0 -10 0 -10 18 0 18 0 23 -21 22 -21 6 5 c 3 3 6 39 6 79 l 1 74 -20 34 -20 34 -29 18 -30 17 -40 6 -40 5 -35 -19 z " fill="#000000"/>
      <path id="pKExH5YyU" d="M 9680 5480 l 0 -20 15 0 15 0 0 -10 0 -10 45 0 45 0 0 19 0 19 -50 11 c -28 6 -55 11 -60 11 l -10 0 0 -20 z " fill="#000000"/>
      <path id="p1AkB9W1D8" d="M 9266 5148 c 9 -31 9 -31 43 -23 l 31 7 0 19 0 19 -41 0 -40 0 7 -22 z " fill="#000000"/>
      <path id="p8UB8lsZX" d="M 9859 5126 l -96 -11 8 -22 8 -23 35 0 35 0 6 11 7 10 29 -6 30 -7 14 12 15 12 22 -5 23 -6 19 14 18 14 -7 10 -6 11 -32 -1 c -18 -1 -75 -7 -128 -13 z " fill="#000000"/>
      <path id="p5sqUfxmP" d="M 7919 4972 l -65 -58 218 -164 c 120 -91 218 -168 218 -172 l 0 -8 15 0 16 0 5 -15 c 4 -8 11 -15 16 -15 9 0 115 -77 150 -109 30 -28 47 -41 53 -41 3 0 15 -8 26 -19 11 -10 44 -35 75 -56 l 55 -38 7 7 7 7 -1 77 0 77 -17 33 -18 32 -117 88 c -176 132 -450 340 -510 389 -30 24 -57 43 -61 43 -4 0 -36 -26 -72 -58 z " fill="#000000"/>
      <path id="pu4B8pfQ" d="M 9380 4805 l 0 -35 15 0 15 0 0 -11 c 0 -15 26 -39 44 -39 l 15 0 7 22 7 22 -44 38 c -24 21 -47 38 -51 38 l -8 0 0 -35 z " fill="#000000"/>
      <path id="p10y3ydDdF" d="M 8047 2123 l -18 -5 3 -16 3 -17 38 -3 37 -3 0 25 0 26 -22 -1 c -13 -1 -31 -3 -41 -6 z " fill="#000000"/>
      <path id="pyWzo0goy" d="M 8160 2110 l 0 -20 15 0 15 0 0 -10 0 -10 45 0 45 0 0 19 0 19 -44 11 c -25 6 -52 11 -60 11 l -16 0 0 -20 z " fill="#000000"/>
      <path id="pnrQtmuby" d="M 8400 1845 c -36 -7 -84 -13 -107 -14 l -43 -1 0 -19 0 -19 30 -4 31 -5 6 10 6 9 38 -5 39 -5 6 10 6 10 24 -5 24 -4 6 8 5 9 25 0 24 0 0 20 0 20 -27 -1 c -16 -1 -57 -7 -93 -14 z " fill="#000000"/>
      <path id="ppKCGqmoN" d="M 7770 1841 c 0 -7 6 -19 14 -26 l 14 -14 36 6 36 6 0 -12 0 -12 36 7 36 7 8 -13 8 -12 31 7 31 7 0 17 0 18 -72 7 c -40 3 -97 9 -125 13 l -53 6 0 -12 z " fill="#000000"/>
      <path id="pOEb4jIvw" d="M 7619 1232 c -63 -43 -154 -99 -202 -126 l -87 -48 0 -14 0 -14 10 0 c 12 0 72 29 80 39 3 3 25 17 50 30 25 13 96 57 158 97 l 112 73 0 21 c 0 11 -1 20 -2 19 -2 0 -55 -35 -119 -77 z " fill="#000000"/>
    </g>
  </g>
  <g id="l2WtLDnydcTa393qmXPui09" fill="rgb(127,88,0)" style="transform: none;">
    <g style="transform: none;" id="g238">
      <path id="pANl1ENed" d="M 7148 9094 l 43 -26 6 5 5 6 -41 20 c -56 29 -65 26 -13 -5 z " fill="#000000"/>
      <path id="p16n2v7za8" d="M 7210 9065 c 0 -2 18 -14 40 -25 22 -11 40 -18 40 -15 0 2 -18 14 -40 25 -22 11 -40 18 -40 15 z " fill="#000000"/>
      <path id="py4QLfIDx" d="M 3138 6019 l -18 -10 0 -14 0 -15 40 0 40 0 0 25 0 25 -22 0 c -13 0 -31 -5 -40 -11 z " fill="#000000"/>
      <path id="ptpB6UwdG" d="M 3220 6005 l 0 -25 20 0 20 0 0 -10 0 -10 46 0 46 0 -4 13 c -3 6 -19 22 -38 35 l -33 22 -28 0 -29 0 0 -25 z " fill="#000000"/>
      <path id="pHB2nzsZO" d="M 7223 6023 c -18 -7 -16 -20 2 -20 l 15 0 0 14 c 0 7 -1 13 -2 12 -2 0 -9 -3 -15 -6 z " fill="#000000"/>
      <path id="pe7dqGIY8" d="M 7310 6021 l 0 -9 23 -6 c 12 -3 27 -6 32 -6 l 10 1 -19 14 c -11 8 -26 15 -33 15 l -13 0 0 -9 z " fill="#000000"/>
      <path id="prRgJ31E6" d="M 4310 5955 l 0 -25 45 0 45 0 0 19 0 19 -22 6 c -13 3 -33 6 -45 6 l -23 0 0 -25 z " fill="#000000"/>
      <path id="psWXfBIWP" d="M 3998 5958 l -38 -10 0 -19 0 -19 23 0 c 12 0 39 3 60 6 l 37 7 0 23 0 24 -22 -1 c -13 -1 -40 -6 -60 -11 z " fill="#000000"/>
      <path id="pHOvX8Dt3" d="M 3111 5834 l -23 -17 -14 -33 -14 -33 0 -216 0 -215 25 0 26 0 -1 205 -1 204 13 27 13 27 42 21 42 21 1 13 0 12 -43 0 -43 0 -23 -16 z " fill="#000000"/>
      <path id="p056avgTz" d="M 3230 5835 l 0 -15 15 0 15 0 0 -10 0 -9 33 -9 32 -9 -1 -16 -2 -17 9 0 8 0 -5 -15 -6 -15 11 0 11 0 0 -15 0 -15 9 0 c 5 0 16 3 25 6 l 16 6 0 49 0 49 -30 0 -30 0 0 13 0 14 -25 11 -26 12 -29 0 -30 0 0 -15 z " fill="#000000"/>
      <path id="pURFVi2mV" d="M 7187 5784 l -27 -25 -10 6 -10 6 0 -920 0 -920 10 -27 11 -27 9 9 10 10 0 933 0 934 26 24 c 14 12 21 23 17 23 -5 0 -21 -11 -36 -26 z " fill="#000000"/>
      <path id="p1FvH7XMi6" d="M 4140 5779 l 0 -20 42 3 43 3 3 18 3 17 -45 0 -46 0 0 -21 z " fill="#000000"/>
      <path id="ph49JqV1R" d="M 4300 5786 l 0 -14 23 -6 c 12 -3 30 -6 40 -6 l 17 0 0 20 0 20 -40 0 -40 0 0 -14 z " fill="#000000"/>
      <path id="pyvGQIPtA" d="M 7410 5771 c 0 -17 12 -41 21 -41 l 9 0 0 25 0 25 -15 0 -15 0 0 -9 z " fill="#000000"/>
      <path id="pMo6f3ZJF" d="M 8030 5615 l -23 -25 5 -6 6 -5 22 30 c 26 37 22 40 -10 6 z " fill="#000000"/>
      <path id="pIX8N0nT1" d="M 3350 5525 l 0 -15 -11 0 -12 0 3 -527 c 2 -291 3 -562 2 -603 l -2 -75 -42 -2 c -24 -1 -53 0 -64 2 l -21 5 -39 46 -38 47 -7 151 c -4 83 -8 283 -9 444 l -1 292 -26 0 -26 0 7 -457 7 -458 -35 80 c -19 44 -80 189 -135 323 -55 133 -115 270 -132 303 l -31 62 -28 24 c -16 13 -32 32 -35 41 l -5 17 -38 18 c -21 9 -45 17 -53 17 -8 0 -23 6 -34 14 l -20 14 -30 71 -30 71 -24 0 -23 0 5 -12 c 2 -7 42 -105 87 -218 46 -113 91 -226 101 -252 19 -49 102 -247 119 -283 5 -11 46 -110 91 -220 45 -110 99 -240 120 -290 20 -49 69 -169 108 -265 l 72 -175 22 -17 22 -18 62 0 62 0 25 10 26 9 -6 16 -6 15 16 0 16 0 0 10 c 0 6 -4 10 -10 10 l -10 0 0 15 0 15 15 0 15 0 0 9 c 0 5 -5 11 -11 13 l -11 4 7 27 7 27 14 0 14 0 2 298 c 1 368 6 595 14 734 l 7 106 -19 5 -19 5 18 1 17 1 2 28 c 1 15 2 38 3 52 1 14 5 32 9 39 l 8 12 -6 6 -6 6 9 11 c 8 11 43 108 47 133 1 7 12 24 23 39 12 15 21 31 21 37 0 6 7 19 17 29 l 16 18 -36 0 -37 0 0 -20 0 -21 -25 -25 -25 -25 0 -34 0 -35 -10 0 -10 0 0 -15 0 -15 -9 0 -10 0 -4 -22 c -2 -13 -5 57 -6 155 l -1 177 -15 0 -15 0 0 -15 z " fill="#000000"/>
      <path id="pUAGt1phL" d="M 3550 5474 l 0 -36 12 4 c 6 2 22 18 36 36 l 25 32 -37 0 -36 0 0 -36 z " fill="#000000"/>
      <path id="prtF1s7k7" d="M 8079 5423 l -34 -38 38 34 c 34 33 42 41 34 41 -2 0 -19 -17 -38 -37 z " fill="#000000"/>
      <path id="p10ZPCpt7B" d="M 5075 5403 l -7 -48 -10 -6 -10 -6 26 -55 c 14 -30 26 -58 26 -62 0 -5 7 -32 16 -62 l 15 -54 10 0 9 0 0 74 0 73 -10 54 c -5 30 -15 73 -21 97 l -12 42 -12 0 -13 0 -7 -47 z " fill="#000000"/>
      <path id="p56xPDDfj" d="M 7433 5433 c -7 -3 -13 -8 -13 -12 l 0 -7 25 -2 25 -2 0 9 c 0 11 -21 19 -37 14 z " fill="#000000"/>
      <path id="p5cBGQyM2" d="M 7874 5238 l -29 -33 33 29 c 17 17 32 31 32 33 0 8 -8 1 -36 -29 z " fill="#000000"/>
      <path id="p1EGVMtUCj" d="M 7755 5128 l -40 -43 43 40 c 39 36 47 45 39 45 -2 0 -21 -19 -42 -42 z " fill="#000000"/>
      <path id="p1A41dYROb" d="M 3664 5018 l -9 -23 3 -42 3 -43 19 0 c 10 0 21 4 24 9 l 6 8 -12 57 c -13 61 -20 68 -34 34 z " fill="#000000"/>
      <path id="pHVDpjN4U" d="M 4851 5003 c -6 -21 -11 -41 -11 -45 l 0 -8 20 0 20 0 0 45 0 45 -10 0 -9 0 -10 -37 z " fill="#000000"/>
      <path id="p29recK8T" d="M 3657 4808 l -4 -33 10 -6 10 -7 -7 -26 -6 -26 11 0 11 0 -6 -15 -5 -15 11 0 11 0 -6 -7 -7 -6 16 -11 15 -11 2 -23 1 -22 13 0 13 0 1 -15 c 3 -32 4 -36 19 -45 8 -5 15 -14 15 -19 0 -5 12 -19 27 -30 l 26 -21 17 0 16 0 -6 -10 -6 -10 21 0 21 0 -5 -9 -6 -8 62 -28 62 -28 28 -1 28 -1 0 -9 0 -8 25 4 24 5 4 -10 3 -10 37 7 37 7 0 13 0 13 -62 13 -63 12 -75 31 c -41 17 -76 34 -78 39 -2 4 -9 8 -15 8 l -12 0 -62 64 c -35 34 -63 68 -63 74 0 6 -6 17 -13 24 -7 7 -20 38 -30 69 l -17 56 0 31 0 32 -19 0 -19 0 -5 -32 z " fill="#000000"/>
      <path id="p1lECNVnN" d="M 4820 4750 l 0 -70 15 0 15 0 9 23 c 5 13 12 45 16 70 l 7 47 -31 0 -31 0 0 -70 z " fill="#000000"/>
      <path id="pgSh8A6lr" d="M 4770 4615 l 0 -15 -10 0 -10 0 0 -15 0 -15 -13 0 -14 0 -21 -23 c -12 -13 -22 -29 -22 -35 l 0 -12 -20 0 -20 0 0 -10 0 -10 -11 0 c -6 0 -17 -6 -24 -12 -8 -7 -20 -18 -27 -23 -19 -15 -105 -37 -168 -44 l -55 -6 -3 -16 -3 -17 26 -6 27 -7 14 11 13 12 11 -7 11 -7 15 13 14 12 7 -6 6 -7 14 11 13 11 0 -7 0 -7 15 12 15 12 0 -7 0 -7 14 11 c 8 7 23 13 34 16 53 10 173 113 215 185 l 18 30 -30 0 -31 0 0 -15 z " fill="#000000"/>
      <path id="p14Iur3YXU" d="M 4458 4601 l -48 -15 0 -19 0 -20 45 6 c 54 6 57 8 53 39 l -3 24 -47 -15 z " fill="#000000"/>
      <path id="p1GQdQ96RK" d="M 4020 4580 l 0 -30 45 0 45 0 0 18 0 19 -39 11 c -21 7 -41 12 -45 12 l -6 0 0 -30 z " fill="#000000"/>
      <path id="piIgFA1s" d="M 4220 4375 l 0 -15 15 0 15 0 0 -10 0 -10 13 0 c 7 0 25 6 40 13 l 27 12 0 13 0 12 -55 0 -55 0 0 -15 z " fill="#000000"/>
      <path id="pnFBdeXYt" d="M 7760 1835 l 0 -15 14 0 14 0 4 -11 4 -11 27 7 27 7 0 13 0 13 -16 6 c -9 3 -29 6 -45 6 l -29 0 0 -15 z " fill="#000000"/>
      <path id="p13rvOrhNx" d="M 8360 1817 l 0 -13 35 4 35 4 0 9 0 9 -35 0 -35 0 0 -13 z " fill="#000000"/>
      <path id="pcM2R5sou" d="M 8270 1807 l 0 -13 35 4 35 4 0 9 0 9 -35 0 -35 0 0 -13 z " fill="#000000"/>
      <path id="puD1rlt8E" d="M 7749 1317 l -46 -32 6 -16 6 -16 45 32 45 32 3 16 3 17 -8 0 c -4 0 -29 -15 -54 -33 z " fill="#000000"/>
      <path id="plpeqGm1u" d="M 7656 1255 l -19 -14 7 -16 6 -16 24 16 25 17 -6 14 c -6 17 -13 17 -37 -1 z " fill="#000000"/>
      <path id="pWgrMdHfw" d="M 7503 1158 l -33 -20 0 -14 0 -14 10 0 c 5 0 22 8 37 18 l 28 17 1 18 2 17 -7 -1 c -3 0 -21 -10 -38 -21 z " fill="#000000"/>
    </g>
  </g>
  <g id="l1XPtyaPtZaENWRssZazS0Z" fill="#971128" style="transform: none;">
    <g style="transform: none;" id="g243">
      <path id="pySLduQna" d="M 5078 1063 l -18 -4 0 -14 0 -13 16 -6 c 9 -3 29 -6 45 -6 l 29 0 0 25 0 25 -27 -1 c -16 -1 -36 -3 -45 -6 z " fill="#000000"/>
      <path id="pRVEtax30" d="M 5431 851 l -22 -19 -39 -7 c -21 -4 -72 -10 -113 -14 l -75 -7 -151 11 -152 10 -9 15 -9 15 -11 -11 -12 -12 -19 -73 -19 -73 0 -50 c 1 -68 15 -127 47 -193 l 27 -54 48 -45 49 -45 57 -27 57 -26 80 -1 80 0 67 32 66 31 43 44 42 43 29 61 28 61 7 65 6 65 -12 69 -12 69 -19 43 -19 42 -9 0 c -5 0 -19 -9 -31 -19 z  M5288.4168927968879 595.45279811425473 C 5288.4168927968879 528.315376661809 5233.9912591894393 473.8897430543606 5166.8538377369937 473.8897430543606 5099.71641628454796 473.8897430543606 5045.29078267709957 528.315376661809 5045.29078267709957 595.45279811425473 5045.29078267709957 662.5902195667004 5099.71641628454796 717.0158531741489 5166.8538377369937 717.0158531741489 5233.9912591894393 717.0158531741489 5288.4168927968879 662.5902195667004 5288.4168927968879 595.45279811425473 Z M5241.0 681.0 " fill="#000000"/>
    </g>
  </g>
  <g id="lrdrfz7QLAT3Z9IC81b9CB" fill="rgb(82,51,0)" style="transform: none;">
    <g style="transform: none;" id="g262">
      <path id="p3jcwb1qW" d="M 8009 8607 c -37 -13 -78 -33 -92 -43 l -26 -19 -1 -12 0 -13 34 0 34 0 4 12 4 11 50 13 49 13 113 1 112 0 0 19 0 19 -22 6 c -13 4 -61 9 -108 12 l -85 5 -66 -24 z " fill="#000000"/>
      <path id="p0BhXPKq5" d="M 8320 8555 l 0 -35 20 0 20 0 0 -13 0 -14 31 -27 30 -27 40 3 40 3 -37 44 -38 44 -45 29 c -25 15 -49 28 -53 28 l -8 0 0 -35 z " fill="#000000"/>
      <path id="pzhguJzqY" d="M 6980 8507 c 0 -33 10 -42 64 -60 l 50 -17 38 0 38 0 0 -13 0 -13 68 -22 68 -22 38 0 37 0 -3 18 -3 17 -197 67 -198 67 0 -22 z " fill="#000000"/>
      <path id="p2Z5M7P0J" d="M 7762 8353 c -5 -10 -12 -31 -16 -46 l -7 -28 -29 6 -30 7 0 -31 0 -31 44 0 45 0 6 11 c 4 6 9 37 12 70 l 6 59 -11 0 -11 0 -9 -17 z " fill="#000000"/>
      <path id="pGYoOdCTv" d="M 7500 8322 l 0 -30 23 -6 c 12 -3 39 -6 60 -6 l 37 0 0 18 0 19 -42 12 c -24 7 -51 15 -60 17 l -18 5 0 -29 z " fill="#000000"/>
      <path id="pWlKYpiF0" d="M 8247 8087 l -5 -14 -37 -17 -37 -18 -33 6 -33 7 -25 19 -24 19 -7 -6 c -3 -3 -6 -21 -6 -39 l 0 -32 16 -6 c 9 -3 51 -6 94 -6 l 79 0 15 16 16 15 0 35 c 0 36 -4 43 -13 21 z " fill="#000000"/>
      <path id="p12G02BgdB" d="M 7064 7765 l -19 -14 -37 -1 -38 0 0 -19 0 -19 16 -6 c 9 -3 31 -6 49 -6 l 34 0 15 16 16 15 0 25 0 24 -8 0 c -5 0 -17 -7 -28 -15 z " fill="#000000"/>
      <path id="peoaIvrGJ" d="M 7893 7763 l -13 -5 0 -39 0 -39 30 0 30 0 0 23 c 0 12 -3 32 -6 45 l -6 22 -12 -1 c -6 0 -17 -3 -23 -6 z " fill="#000000"/>
      <path id="pjcSrjRoi" d="M 6827 7608 l -47 -33 0 -12 0 -13 34 0 35 0 6 20 6 20 15 0 14 0 0 25 0 25 -8 0 c -4 0 -29 -15 -55 -32 z " fill="#000000"/>
      <path id="p10RyPaQic" d="M 7910 7610 l -14 -9 13 -101 c 7 -56 15 -108 18 -116 l 5 -14 -21 0 -21 0 0 -17 c 0 -10 3 -28 6 -40 l 6 -23 13 0 14 0 3 18 3 17 33 -230 c 18 -126 32 -238 32 -247 l 0 -18 -16 0 -16 0 7 -57 c 3 -32 9 -68 12 -81 l 6 -24 17 5 17 4 17 -116 c 9 -64 16 -122 16 -128 l 0 -13 -15 0 -15 0 0 -15 c 0 -16 26 -190 36 -237 l 6 -28 14 0 14 0 0 10 0 10 36 0 35 0 -5 18 c -8 28 -82 514 -121 797 -38 273 -82 571 -91 618 l -6 27 -11 0 c -7 0 -19 -4 -27 -10 z " fill="#000000"/>
      <path id="p1EqHCTWir" d="M 8140 6105 l 0 -15 -15 0 -15 0 0 -15 0 -15 -10 0 -10 0 0 -24 0 -24 27 7 27 7 19 26 19 26 -7 21 -6 21 -15 0 -14 0 0 -15 z " fill="#000000"/>
      <path id="pdRgBF9Bl" d="M 3170 6019 l 0 -10 -19 6 -19 6 -32 -28 -33 -27 -13 -33 -14 -32 0 -526 0 -525 -8 0 c -4 0 -15 15 -24 33 -23 46 -78 166 -78 171 0 3 -19 44 -41 93 -48 102 -56 119 -142 313 -36 80 -92 203 -125 273 l -61 128 -28 -7 c -15 -4 -31 -9 -35 -11 l -8 -4 0 -34 c 0 -18 -3 -40 -6 -49 l -6 -16 -28 0 -28 0 -10 -32 c -6 -18 -15 -64 -22 -101 l -11 -69 12 -36 c 11 -36 76 -182 102 -232 l 13 -25 29 -9 c 17 -5 47 -16 67 -25 l 38 -16 5 -17 c 3 -9 19 -28 35 -41 l 28 -24 30 -59 c 41 -81 222 -512 313 -746 l 30 -78 11 0 11 0 -6 450 -7 450 13 0 12 0 -14 9 -13 9 13 5 14 5 -12 1 -13 1 0 19 0 19 13 5 12 5 -15 11 -15 11 15 0 15 0 -15 11 -15 11 13 5 12 5 0 44 0 44 -10 0 -10 0 0 190 0 191 16 6 16 6 -13 8 -12 7 31 31 30 31 54 0 53 0 33 -20 32 -20 10 -26 10 -25 0 -412 0 -412 7 -97 6 -98 19 0 18 0 0 50 0 50 -10 0 -10 0 0 80 0 80 15 0 15 0 0 35 0 35 -10 0 -10 0 0 15 0 15 15 0 15 0 0 20 0 20 -12 0 -12 0 20 16 19 15 -13 6 -13 5 18 14 18 14 -15 10 -15 10 19 0 18 0 -5 14 -6 15 10 3 10 3 2 23 1 22 11 0 10 0 -15 10 -15 10 14 0 14 0 -6 6 -6 6 25 25 25 25 -3 10 -4 10 38 40 c 21 23 36 43 34 46 -8 7 128 125 194 167 l 65 42 66 26 c 37 15 96 34 131 42 l 65 15 100 6 101 6 112 -17 112 -16 81 -30 81 -29 68 -41 69 -40 64 -61 c 79 -73 122 -130 172 -229 l 38 -74 3 43 3 42 10 0 9 0 0 15 0 15 -15 0 -15 0 0 9 c 0 5 5 11 12 13 l 11 4 -12 50 -12 49 -35 71 -35 72 -55 66 -55 67 -81 60 c -44 32 -84 59 -90 59 l -10 0 16 25 16 25 -24 6 c -14 3 -31 12 -37 20 l -12 15 -20 -18 -20 -18 -4 11 c -2 6 -10 20 -18 30 l -15 19 -10 -15 -9 -15 -21 13 c -11 6 -27 12 -35 12 l -16 0 10 -19 10 -18 -67 14 -67 14 -37 -5 -38 -6 0 11 0 11 -142 -4 -142 -4 -3 -10 -4 -11 -24 5 -25 4 0 -8 0 -9 -33 -1 -32 0 -87 -41 -87 -42 -53 -39 c -55 -41 -157 -144 -243 -247 l -49 -59 -7 25 c -4 13 -7 61 -8 107 l -1 82 -15 0 -15 0 0 20 0 20 16 0 17 0 -6 69 -6 70 -12 23 c -6 13 -20 33 -31 44 l -19 22 -20 -5 -19 -5 6 16 7 17 -27 -7 -26 -6 0 11 0 11 -40 0 -40 0 0 -11 z  m -467 -676 c 58 -114 179 -359 202 -410 l 28 -63 18 0 19 0 0 -40 0 -40 39 0 38 0 7 -52 c 3 -29 6 -107 5 -173 l 0 -120 -20 45 c -21 45 -101 250 -146 370 -14 36 -33 92 -43 125 -9 33 -31 87 -48 120 -34 66 -122 255 -122 261 0 11 10 1 23 -23 z " fill="#000000"/>
      <path id="p1ciUHXEo" d="M 4840 4969 c 0 -5 -12 -35 -26 -65 l -25 -54 -51 -56 -51 -55 -38 -19 -37 -19 -14 20 -13 20 -28 -10 -27 -11 0 -14 0 -14 -11 -4 -12 -4 13 -24 13 -23 -19 -13 c -11 -7 -24 -17 -29 -22 l -10 -9 -13 5 -12 4 0 -9 0 -8 -48 -4 c -57 -6 -215 -6 -294 -1 l -58 4 0 11 0 11 -34 12 c -18 7 -61 30 -94 52 l -61 39 -45 48 -46 48 -30 56 c -16 31 -30 64 -30 74 l 0 16 -22 -3 -23 -3 -3 -47 -3 -48 10 -72 10 -73 37 -73 37 -73 54 -49 55 -50 72 -35 72 -34 69 -17 70 -16 155 4 155 4 90 32 90 31 3 11 4 10 14 0 14 0 0 10 c 0 6 4 10 10 10 12 0 120 107 120 120 0 5 4 10 9 10 l 9 0 21 50 22 51 -6 9 -6 10 10 0 11 0 0 20 0 20 -10 0 -10 0 0 15 0 15 15 0 15 0 0 95 0 95 -20 0 -20 0 0 -11 z " fill="#000000"/>
      <path id="pnQT0IMRr" d="M 7606 2759 c -3 -17 -6 -42 -6 -55 l 0 -24 18 0 18 0 -4 -40 -4 -40 37 0 37 0 -4 13 c -3 6 -18 49 -34 95 l -29 82 -11 0 -11 0 -7 -31 z " fill="#000000"/>
      <path id="p18hUFTSHa" d="M 7510 1153 l 0 -12 -14 5 -15 6 -12 -20 -13 -20 -11 4 -11 5 -27 -25 -26 -24 -5 6 -6 5 0 -10 0 -11 -12 1 c -7 1 -75 -30 -150 -68 l -138 -70 0 -17 0 -18 38 15 c 57 24 300 153 364 194 l 57 36 -9 15 -10 15 0 -12 z " fill="#000000"/>
      <path id="pMjLQVlbx" d="M 6923 864 l -33 -14 0 -15 0 -15 10 0 c 5 0 21 5 35 12 l 25 11 0 19 c 0 10 -1 18 -2 17 -2 0 -18 -7 -35 -15 z " fill="#000000"/>
    </g>
  </g>
  <g id="l2u725cjNr9GSsewxAQO9b5" fill="rgb(2,61,65)" style="transform: none;">
    <g style="transform: none;" id="g270">
      <path id="pBSatlzmu" d="M 4818 9068 c -16 -5 -28 -13 -28 -16 l 0 -7 -28 -2 c -31 -3 -423 -139 -431 -150 -3 -5 -16 -9 -27 -10 -12 -1 -156 -50 -320 -109 -257 -91 -1422 -484 -1436 -484 -3 0 -11 19 -18 43 -16 56 -46 114 -81 158 l -29 37 -49 31 c -56 36 -117 58 -181 64 l -44 5 -64 -9 -64 -9 -54 -27 -55 -27 -59 -62 -58 -63 -22 -58 -22 -58 -5 -75 -5 -75 16 -62 c 46 -181 155 -280 347 -317 l 56 -11 -49 -90 c -78 -142 -203 -375 -300 -560 -50 -93 -134 -251 -188 -350 -194 -358 -390 -724 -505 -945 -111 -213 -222 -419 -251 -466 l -13 -21 -53 51 -53 52 -50 25 -50 24 -111 0 -111 0 -68 -35 -69 -35 -43 -53 -42 -52 -22 -71 -22 -71 5 -88 5 -88 31 -66 31 -65 45 -45 46 -44 45 -22 45 -22 57 -8 58 -8 80 15 80 14 44 25 44 24 13 -17 c 8 -10 112 -180 232 -378 347 -572 446 -732 642 -1035 326 -506 381 -592 494 -775 117 -187 241 -395 271 -454 l 17 -34 -24 6 -25 7 -57 -10 -57 -9 -52 -24 -52 -24 -48 -47 -48 -47 -25 -53 -24 -53 -11 -56 -12 -56 10 -80 11 -79 25 -56 26 -56 51 -50 c 63 -61 89 -75 183 -99 l 72 -18 80 15 c 44 9 82 19 85 23 3 4 17 11 33 14 l 27 7 -6 9 -5 9 18 0 19 0 32 33 32 33 -6 7 -7 7 14 0 14 0 13 20 12 20 -12 1 -13 0 20 9 20 9 -12 0 -13 1 0 10 0 10 18 1 17 1 -12 5 c -7 2 -13 9 -13 14 l 0 9 18 1 17 1 -12 5 -13 5 0 14 0 14 15 0 15 0 0 10 c 0 6 -4 10 -10 10 l -10 0 0 25 0 25 15 0 15 0 0 25 0 25 -15 0 -15 0 0 10 0 10 16 0 16 0 -6 30 c -3 16 -9 43 -12 60 l -6 30 14 0 c 23 0 259 -82 558 -195 379 -142 585 -217 759 -276 163 -55 172 -60 300 -158 l 94 -72 16 3 16 3 10 23 c 5 12 13 22 17 22 5 0 8 6 8 13 l 0 12 -135 98 -135 99 -59 26 -59 26 29 57 c 16 32 32 60 37 62 l 7 5 185 -195 184 -195 28 6 29 6 16 15 15 15 -38 43 c -21 23 -100 107 -175 187 -75 80 -149 159 -163 176 l -25 31 71 99 c 39 54 86 123 105 151 l 34 53 -21 0 -21 0 -5 15 -6 15 -23 0 -22 0 -79 -121 c -43 -67 -82 -126 -85 -132 l -7 -10 -31 34 c -17 19 -34 43 -37 55 l -5 21 40 189 40 190 -6 22 -5 22 -24 6 -24 6 -13 -5 -13 -5 -38 -173 c -21 -96 -42 -180 -46 -187 l -7 -13 -38 43 c -21 24 -77 84 -124 133 -48 50 -134 142 -191 205 -144 157 -611 654 -673 715 l -50 49 37 112 36 111 18 15 c 15 14 187 118 282 171 44 24 232 136 325 193 39 24 91 56 118 70 l 47 27 -6 51 c -4 28 -7 52 -8 53 -1 2 -26 -13 -55 -32 -29 -19 -54 -35 -56 -35 -2 0 -111 -64 -242 -143 -131 -79 -290 -172 -353 -207 l -115 -65 -340 -3 -341 -3 -149 103 c -83 57 -174 123 -204 146 l -54 43 -7 -11 -6 -10 -23 2 -23 3 -11 -17 -11 -17 106 -268 c 88 -221 151 -384 204 -528 l 7 -20 -25 35 c -14 19 -130 197 -258 395 -257 396 -475 749 -769 1245 -259 437 -237 406 -273 373 l -18 -16 0 16 0 17 14 0 14 0 6 15 5 15 -9 0 c -6 0 -10 4 -10 9 l 0 9 20 5 20 5 0 11 0 11 -10 0 c -5 0 -10 5 -10 10 l 0 10 14 0 14 0 6 23 c 4 12 11 49 16 82 l 8 60 137 265 c 145 281 353 675 543 1030 63 118 176 330 250 470 113 215 320 601 448 835 31 58 69 103 79 94 10 -11 -58 -552 -150 -1184 -35 -242 -69 -480 -75 -530 l -11 -90 -50 -190 c -28 -104 -58 -212 -67 -240 l -16 -50 -7 50 c -4 28 -8 82 -8 121 -1 39 -4 86 -7 103 l -7 31 -13 0 -14 0 0 10 c 0 6 5 10 10 10 l 10 0 0 23 c 0 12 -5 29 -10 37 l -10 15 0 -14 0 -13 -21 5 -20 5 -32 -28 -31 -28 14 -53 14 -54 -3 -551 -3 -550 8 -50 7 -49 28 125 c 32 148 99 389 174 625 29 94 75 239 101 323 l 48 152 10 -3 c 5 -2 13 -10 17 -18 19 -38 42 -93 82 -193 l 44 -108 6 8 c 3 5 10 36 16 69 17 91 20 105 26 126 l 6 19 10 0 9 0 0 38 0 37 21 73 22 72 9 0 8 0 -26 53 c -14 28 -33 60 -42 70 l -16 17 10 9 c 7 6 1049 534 1527 773 l 99 49 13 -17 13 -18 40 13 40 13 -5 18 -5 17 43 21 43 21 10 33 11 33 23 3 22 3 0 14 0 13 -74 48 -75 47 11 26 c 6 14 48 125 93 246 l 83 220 817 0 816 0 41 -95 c 22 -52 66 -158 98 -235 l 58 -140 -16 -12 -16 -13 37 0 38 0 29 22 30 22 0 23 0 22 -13 -5 -13 -5 -13 28 c -7 15 -40 96 -72 178 -33 83 -66 165 -74 183 l -15 32 120 0 120 0 0 45 0 45 -139 0 -139 0 -5 13 c -3 6 -24 59 -47 117 -23 58 -48 119 -55 135 -23 53 -83 198 -103 250 -26 67 -209 511 -228 553 l -16 34 5 5 6 5 208 -77 c 114 -43 271 -101 348 -130 328 -124 637 -236 640 -233 9 10 35 103 35 126 l 0 27 -98 34 c -53 18 -172 62 -264 97 l -166 63 -21 -6 -21 -5 0 16 0 16 -17 2 c -10 0 -28 0 -40 -1 l -23 -2 0 16 0 15 -17 2 c -10 0 -28 0 -40 -1 l -23 -2 0 16 0 15 -17 2 c -10 0 -28 0 -40 -1 l -23 -2 0 13 0 14 -44 16 -45 17 -20 -6 -21 -5 0 13 0 14 -60 22 -61 22 -16 -6 -15 -6 -9 16 -9 16 -54 20 -53 20 -22 -6 -21 -5 0 14 0 15 -39 13 -38 12 -42 -27 -41 -28 0 -16 c 0 -9 4 -21 9 -26 11 -11 130 -281 239 -540 185 -442 282 -678 279 -681 -2 -2 -318 -6 -703 -8 l -699 -4 -72 5 -73 6 0 9 c 0 34 410 1030 485 1179 l 37 71 -33 34 c -35 37 -40 38 -81 22 z  m -97 -260 c -21 -59 -75 -197 -96 -243 -34 -74 -262 -660 -289 -740 -9 -27 -20 -56 -24 -63 l -9 -13 -509 -1 -509 -2 -235 144 c -324 197 -411 252 -406 257 2 2 217 76 477 163 487 162 800 270 1254 431 231 82 335 116 357 118 l 7 1 -18 -52 z  M2283.068400279821 8168.249157711396 C 2283.068400279821 8093.881196318814 2222.781255922446 8033.594051961438 2148.4132945298634 8033.594051961438 2074.045333137281 8033.594051961438 2013.7581887799056 8093.881196318814 2013.7581887799056 8168.249157711396 2013.7581887799056 8242.617119103978 2074.045333137281 8302.904263461354 2148.4132945298634 8302.904263461354 2222.781255922446 8302.904263461354 2283.068400279821 8242.617119103978 2283.068400279821 8168.249157711396 Z M2225.0 8282.0  m 702 -485 c 213 -129 444 -270 513 -314 173 -110 345 -218 475 -298 135 -83 205 -128 205 -131 0 -14 -487 -268 -1239 -646 l -593 -298 -20 0 -19 0 6 43 c 3 23 39 272 80 552 41 281 90 632 110 780 19 149 45 332 56 408 l 22 137 7 0 c 5 0 183 -105 397 -233 z  m 1343 -142 c 0 -3 -15 -44 -34 -93 -19 -48 -54 -140 -78 -206 l -43 -118 -11 -5 -11 -4 -89 55 c -214 132 -548 348 -568 367 l -10 9 422 0 c 232 0 422 -2 422 -5 z  m -3642 -2505 l 30 -30 7 -30 7 -30 -12 -34 -11 -33 -28 -26 -29 -26 -6 7 -6 6 -14 -19 -14 -19 -28 13 c -16 7 -40 19 -53 28 l -24 15 12 7 12 8 -7 16 -6 17 -19 0 -19 0 0 10 c 0 6 4 10 9 10 l 8 0 7 41 7 42 30 28 31 29 43 0 43 0 30 -30 z  m 1552 -1759 c 145 -92 516 -302 602 -341 l 77 -35 1 -14 c 0 -10 -245 -768 -276 -851 l -6 -15 -16 30 c -23 45 -110 241 -139 315 -41 106 -209 550 -290 765 -41 110 -79 204 -84 210 -5 5 -9 13 -9 18 l 0 9 23 -15 c 12 -9 65 -43 117 -76 z  m 788 -93 c -3 -7 -18 -51 -33 -98 -15 -47 -31 -89 -35 -93 l -7 -8 -184 97 c -101 53 -191 101 -199 105 l -15 8 239 1 238 0 -4 -12 z  m 249 -580 c 137 -145 343 -364 458 -488 115 -124 272 -292 349 -373 l 141 -148 0 -12 c 0 -7 -20 -47 -44 -90 l -44 -79 -21 5 c -12 3 -102 36 -201 74 -392 152 -856 328 -975 370 -69 24 -144 51 -167 60 l -43 16 0 12 c 0 18 100 344 185 605 42 129 82 252 88 273 6 20 14 37 18 37 4 0 119 -118 256 -262 z  m -772 -952 l 35 -15 20 -33 20 -33 0 -27 c 0 -32 -19 -80 -37 -91 -7 -4 -13 -14 -13 -21 l 0 -14 -27 -10 -28 -11 -31 2 -30 3 -32 23 c -18 12 -37 32 -43 44 l -12 21 12 4 c 6 2 11 8 11 13 l 0 9 -15 0 -15 0 0 20 0 20 13 0 13 0 9 32 10 33 34 22 34 23 19 0 c 10 0 34 -6 53 -14 z " fill="#000000"/>
      <path id="p4deh1wCj" d="M 1745 5990 l -20 -9 27 0 27 -1 6 10 6 10 -13 -1 c -7 0 -22 -4 -33 -9 z " fill="#000000"/>
      <path id="pr7ELw0ey" d="M 1062 5058 c -7 -7 -12 -19 -12 -28 l 0 -17 18 -16 19 -17 210 0 210 0 17 19 17 18 -10 27 -11 26 -223 0 -223 0 -12 -12 z " fill="#000000"/>
      <path id="p7onn7O9J" d="M 4799 2553 l -1 -18 -5 13 -5 12 -24 0 -23 0 -36 -55 c -19 -31 -35 -60 -35 -65 l 0 -9 41 -11 42 -11 8 8 c 5 5 29 42 53 81 l 45 72 -30 0 -29 0 -1 -17 z " fill="#000000"/>
      <path id="pHk8u0Fs3" d="M 2916 1121 l -19 -7 229 -116 229 -116 130 -52 c 72 -29 195 -74 275 -101 l 145 -48 3 15 c 2 9 2 17 0 18 -1 1 -86 30 -188 65 l -185 63 -27 0 -28 -1 0 12 0 12 -48 20 c -26 11 -56 20 -67 21 -11 0 -26 1 -32 2 l -13 2 0 14 0 14 -14 5 -14 6 -21 -6 -21 -5 5 13 5 14 -97 45 c -54 25 -102 44 -107 42 -5 -2 -22 2 -37 8 l -28 12 6 16 6 15 -11 -7 -12 -7 -19 6 -20 6 -3 13 -3 13 -19 -6 z " fill="#000000"/>
    </g>
  </g>
  <g id="l3CObMSzac2WOMSg50hTmam" fill="rgb(85,33,4)" style="transform: none;">
    <g style="transform: none;" id="g285">
      <path id="p16JcCqGEX" d="M 8040 8609 l 0 -10 -10 6 -10 6 0 -11 0 -12 -15 6 -15 5 0 -8 0 -9 -19 5 -19 5 -13 -19 c -8 -10 -21 -19 -29 -21 l -15 -2 -43 -47 c -54 -58 -72 -91 -92 -173 l -16 -65 -17 -3 -17 -3 0 14 0 14 -42 13 c -24 7 -62 14 -86 15 l -43 2 -12 15 -12 16 -79 26 -79 26 -8 -6 -9 -5 -70 22 -70 23 0 12 0 12 -25 6 -26 7 -10 -6 -9 -6 -53 17 -52 17 -10 13 -10 14 -59 20 c -33 11 -63 20 -68 20 l -8 0 0 -17 c 0 -9 -8 -34 -17 -55 l -17 -38 -23 0 -23 0 0 -13 0 -13 108 -36 c 59 -20 242 -82 407 -137 165 -56 306 -103 313 -106 l 14 -5 -286 -190 -286 -190 0 -10 0 -11 -9 5 -9 6 -4 -11 -4 -12 -21 12 -22 11 -190 0 -191 0 0 -20 0 -20 20 0 20 0 0 -25 0 -25 98 0 c 53 0 107 -3 120 -6 l 23 -7 -36 -24 c -19 -13 -35 -27 -35 -32 0 -4 -6 -8 -12 -8 -14 0 -529 -340 -539 -356 -4 -5 -10 -31 -13 -58 l -7 -49 -19 0 -20 0 0 -35 0 -35 18 0 18 0 22 20 c 12 11 25 20 30 20 5 0 130 80 278 178 466 308 546 359 934 598 l 264 164 7 -8 c 8 -9 102 -607 199 -1272 27 -188 52 -357 56 -375 29 -170 35 -215 32 -234 l -3 -19 -100 46 c -55 25 -400 198 -768 385 l -667 339 -15 -6 -15 -5 0 -13 0 -14 -40 4 -40 4 0 -11 0 -10 298 -150 c 163 -82 403 -204 532 -271 340 -176 735 -369 794 -390 l 51 -17 26 11 26 11 -4 13 -5 12 15 0 16 0 3 17 c 2 9 1 36 -1 61 l -3 44 -19 5 -19 5 0 9 c 0 5 5 9 10 9 l 10 0 0 15 0 15 -15 0 -15 0 0 11 c 0 6 7 17 15 26 l 15 15 -5 9 c -4 5 -13 9 -21 9 l -14 0 0 15 0 15 10 0 10 0 0 20 0 20 -15 0 -15 0 0 14 0 14 15 6 15 5 -6 16 -6 15 -14 0 -14 0 0 10 c 0 6 5 10 10 10 l 10 0 0 19 0 20 -17 4 -18 5 19 1 18 1 -6 23 c -3 12 -6 25 -6 30 0 4 -7 7 -15 7 l -15 0 0 10 c 0 6 5 10 10 10 l 10 0 0 25 0 25 -15 0 -15 0 0 10 c 0 6 5 10 10 10 l 10 0 0 20 0 20 -15 0 -15 0 0 15 0 15 10 0 10 0 0 25 0 25 -15 0 -15 0 0 10 c 0 6 5 10 10 10 l 10 0 0 25 0 25 -15 0 -15 0 0 15 0 15 10 0 10 0 0 25 0 25 -15 0 -15 0 0 10 c 0 6 5 10 10 10 l 10 0 0 19 0 20 -17 4 -18 5 18 1 17 1 0 14 c 0 8 -3 21 -6 30 l -6 16 -14 0 -14 0 0 10 c 0 6 5 10 10 10 l 10 0 0 25 0 25 -15 0 -15 0 0 15 0 15 10 0 10 0 0 25 0 25 -15 0 -15 0 0 10 c 0 6 5 10 10 10 l 10 0 0 25 0 25 -15 0 -15 0 0 10 c 0 6 5 10 10 10 l 10 0 0 20 0 20 -15 0 -15 0 0 15 0 15 10 0 10 0 0 20 0 20 -15 0 -15 0 0 10 c 0 6 5 10 10 10 l 10 0 0 20 0 20 -15 0 -15 0 0 15 0 15 10 0 10 0 0 20 0 20 -15 0 -15 0 0 15 0 15 10 0 10 0 0 28 c 0 15 -3 44 -6 65 l -7 37 -13 0 -14 0 0 10 0 10 11 0 11 0 -4 60 -4 60 7 0 c 5 0 22 -21 40 -46 l 32 -47 459 -926 c 485 -976 646 -1302 735 -1491 l 55 -115 6 -40 7 -39 25 -7 25 -7 114 -1 114 -1 33 25 33 25 47 0 47 0 33 -36 c 19 -19 34 -40 34 -46 l 0 -11 103 8 c 56 4 111 8 122 10 11 1 26 3 34 4 l 14 1 -6 61 -5 60 -27 54 -26 55 -46 45 -46 46 -49 25 -49 25 -21 -7 -20 -6 -9 13 -8 14 -74 3 -75 4 -54 -16 -54 -15 -62 -41 c -35 -22 -65 -40 -68 -40 -4 0 -1077 2151 -1161 2327 l -24 53 6 10 6 10 27 0 27 0 62 21 62 22 56 42 56 42 30 41 30 40 19 58 20 57 0 86 0 86 -15 48 c -8 27 -26 70 -41 96 l -26 49 -21 -4 -22 -4 13 6 c 6 3 12 9 12 14 l 0 8 -18 -5 -18 -4 -15 17 c -7 9 -14 24 -14 33 l 0 16 -22 -3 -23 -3 6 14 5 14 -41 17 -42 17 -20 -7 -20 -6 -8 12 -8 12 -33 -10 -34 -10 -27 2 c -16 2 -31 6 -35 9 -3 4 -17 7 -30 7 l -23 0 0 -11 z  m 179 -328 l 24 -17 19 -34 19 -35 -4 -37 -5 -38 -29 -40 -30 -40 -6 7 -7 6 0 -9 0 -9 -53 1 c -28 1 -58 2 -65 3 l -13 1 6 10 6 10 -25 30 -25 31 -7 34 -6 34 11 34 12 35 18 16 c 11 10 32 21 47 25 l 29 8 30 -4 30 -5 24 -17 z " fill="#000000"/>
      <path id="pEAl1zwMF" d="M 6085 7109 c -16 -11 -35 -23 -42 -27 l -11 -7 5 -27 5 -28 37 1 36 0 30 18 30 17 3 37 3 37 -33 -1 -33 0 -30 -20 z " fill="#000000"/>
      <path id="p15BM2xOKN" d="M 4522 6003 c 2 -5 10 -25 18 -46 l 15 -39 29 6 c 15 3 35 6 42 6 l 14 0 0 18 0 18 -15 20 -15 19 -10 -15 -10 -15 -14 18 -13 17 -22 0 -23 0 4 -7 z " fill="#000000"/>
      <path id="pX95201tW" d="M 4680 5945 l -13 -15 16 -18 16 -18 21 -1 20 -2 0 23 0 22 -12 12 c -16 16 -33 15 -48 -3 z " fill="#000000"/>
      <path id="p88ujqyEi" d="M 2446 5829 c -3 -13 -7 -53 -10 -89 l -5 -65 14 19 14 19 26 -17 25 -17 25 18 c 30 22 30 27 3 71 l -21 35 18 13 19 14 -6 5 c -2 3 -25 8 -51 11 l -46 7 -5 -24 z " fill="#000000"/>
      <path id="p7Gh6a9Gb" d="M 2564 5549 c 3 -17 21 -66 40 -108 18 -42 51 -114 71 -161 21 -47 59 -128 85 -181 26 -52 51 -111 55 -130 4 -19 18 -61 31 -94 13 -33 46 -121 75 -195 28 -74 74 -188 102 -253 l 50 -118 8 13 9 13 -1 195 c -1 107 -4 240 -8 295 l -7 100 -8 -41 -8 -42 -24 -13 -24 -12 -7 7 -7 7 14 9 14 9 -12 25 -12 26 -18 0 -19 0 -28 63 c -15 34 -63 133 -106 220 l -79 158 6 11 7 11 -11 -7 -11 -7 -50 104 c -27 57 -55 108 -63 113 -7 6 -26 11 -42 12 l -28 2 6 -31 z " fill="#000000"/>
      <path id="p6NAnn7d9" d="M 9358 4843 c -9 -10 -24 -34 -33 -53 -44 -87 -330 -581 -589 -1017 -400 -674 -466 -782 -466 -762 0 12 62 184 120 334 34 88 70 184 81 214 l 20 54 -5 23 -6 24 -28 14 -27 14 -21 -8 c -12 -5 -79 -52 -150 -106 -71 -53 -154 -113 -184 -133 l -55 -36 -317 -3 -318 -4 -102 57 c -109 61 -309 183 -488 297 -30 19 -104 66 -165 103 -60 37 -136 85 -167 106 l -57 39 -30 0 -31 0 -6 -27 -7 -26 9 -14 c 9 -12 329 -212 754 -471 113 -68 215 -134 226 -145 l 21 -22 37 -103 37 -102 -153 -158 c -153 -156 -736 -757 -897 -924 -47 -49 -87 -88 -91 -88 -4 0 -21 64 -39 143 -18 78 -55 232 -81 342 -26 110 -72 307 -101 437 l -54 238 -10 0 c -11 0 -55 49 -55 62 l 0 8 20 0 20 0 0 23 c 0 12 -8 59 -17 105 l -17 82 -23 0 -23 0 0 25 0 25 -30 0 -30 0 6 -27 6 -28 15 -11 14 -12 -11 -4 -12 -4 16 -69 c 9 -39 45 -203 81 -365 81 -372 225 -1004 236 -1035 l 4 -11 -38 -44 -39 -45 -23 30 c -13 16 -50 71 -82 122 l -57 93 -38 0 -38 0 0 15 0 15 -30 0 -30 0 57 -87 c 31 -49 82 -127 114 -174 l 58 -87 -57 -63 c -31 -35 -100 -109 -153 -164 -52 -55 -169 -178 -258 -272 -90 -95 -166 -173 -169 -173 -3 0 -34 11 -68 25 l -63 25 -75 7 -76 6 0 -10 0 -10 -29 5 -28 4 -53 -27 -54 -27 -104 111 -104 111 -23 0 -24 0 -6 -10 -6 -10 -26 0 -26 0 24 -27 24 -27 -30 23 -30 23 -6 -29 c -3 -15 -11 -39 -18 -52 l -13 -24 13 -8 c 8 -4 68 -50 134 -102 l 120 -93 -3 -25 c -2 -13 -4 -35 -5 -49 l -2 -25 165 -12 165 -12 105 10 c 58 5 120 14 137 19 l 33 8 16 16 15 16 -5 17 -5 18 42 29 c 23 16 92 63 152 104 61 42 162 112 225 157 l 115 82 78 42 78 42 142 48 c 78 27 288 104 467 171 499 187 956 350 983 350 l 10 0 -6 -35 -6 -35 9 -5 c 5 -3 86 -14 182 -24 l 173 -20 115 10 c 119 10 278 34 287 43 l 6 5 -24 58 -23 58 -58 58 -57 58 -46 20 -46 20 -21 -6 -20 -7 -9 13 -8 13 -65 4 -66 4 0 -9 0 -9 -40 4 c -22 2 -40 6 -40 9 0 13 75 172 177 377 188 377 298 567 825 1436 85 140 217 363 293 495 76 132 149 255 161 274 l 23 34 -18 16 -18 16 4 13 5 12 -22 0 -21 0 5 9 5 8 -23 22 -23 21 -15 -17 z  m -1109 -1543 c -33 -96 -97 -292 -141 -435 -96 -313 -181 -562 -216 -630 l -25 -50 -22 50 c -13 28 -32 75 -43 105 -11 30 -40 106 -64 169 l -43 114 -18 5 -19 5 11 7 11 6 -6 32 -6 32 -22 0 -21 0 13 9 14 8 -10 34 c -6 19 -26 79 -46 134 -20 55 -36 105 -36 111 l 0 12 158 92 c 86 51 206 122 265 157 120 70 305 191 313 205 20 32 6 -19 -47 -172 z  m -394 0 c -3 -5 -11 -10 -18 -10 -6 0 -80 -41 -164 -91 l -152 -91 -9 6 c -5 3 -19 34 -31 68 -12 35 -27 73 -33 85 l -10 21 6 11 7 11 205 0 205 0 -6 -10 z  m -395 -314 c 0 -2 50 -140 111 -307 61 -167 135 -374 164 -459 l 52 -154 -176 -68 c -97 -37 -205 -79 -241 -93 -36 -13 -137 -52 -225 -86 -719 -276 -860 -329 -870 -329 l -13 0 -47 95 -47 95 484 493 c 266 270 553 565 638 654 137 142 170 174 170 159 z  m -1300 -1513 l 0 -12 -22 -12 c -13 -7 -122 -78 -243 -159 -121 -80 -227 -150 -235 -154 -8 -5 28 36 80 90 160 166 275 287 315 332 l 38 43 33 -58 c 18 -32 34 -63 34 -70 z " fill="#000000"/>
      <path id="pzBstD26d" d="M 4515 4700 l -6 -10 6 -19 6 -20 19 2 20 1 0 18 0 17 18 10 17 10 -37 1 -37 0 -6 -10 z " fill="#000000"/>
      <path id="pBazHuDaT" d="M 3908 4470 c 18 -11 32 -22 32 -25 0 -4 -10 1 -22 9 -12 9 -27 16 -33 16 -5 0 8 -12 30 -25 l 40 -25 13 5 12 4 0 -10 0 -10 10 6 10 6 0 -9 0 -9 68 -11 c 37 -6 100 -15 140 -18 l 72 -7 1 19 0 19 7 -15 c 4 -8 13 -16 20 -18 l 12 -2 0 9 c 0 5 -6 12 -12 14 l -13 5 87 -1 87 -2 12 13 13 12 -22 0 -22 0 0 21 0 22 -31 -7 c -17 -3 -49 -6 -70 -6 l -38 0 -4 -17 -5 -18 -1 18 -1 17 -87 -1 -88 -1 30 -13 c 17 -8 37 -14 45 -15 l 14 0 -11 -11 -11 -11 -22 12 -22 12 -57 -7 -56 -7 10 10 c 6 6 21 12 34 14 l 24 3 5 13 4 12 -19 0 c -11 0 -23 4 -28 9 l -10 8 -90 6 -89 6 32 -19 z " fill="#000000"/>
      <path id="pPNdkqCtU" d="M 5790 3865 l 0 -15 -31 0 -31 0 7 -27 c 4 -16 22 -95 41 -178 20 -82 41 -162 47 -177 l 12 -28 37 0 38 0 0 15 c 0 8 -20 105 -45 215 -25 110 -45 202 -45 205 0 3 -7 5 -15 5 l -15 0 0 -15 z " fill="#000000"/>
      <path id="pX1HECEAm" d="M 7220 989 l 0 -10 -10 6 -10 6 0 -10 0 -10 -15 5 -15 6 -6 -15 -6 -16 -14 6 -14 5 -6 -16 -6 -16 -8 5 -7 5 -84 -37 c -46 -19 -86 -40 -87 -44 l -4 -9 -8 5 -9 5 -73 -29 c -86 -34 -284 -98 -420 -136 l -98 -28 0 -18 0 -18 93 25 c 211 56 489 157 704 256 l 131 60 -5 14 c -6 16 -23 19 -23 3 z " fill="#000000"/>
      <path id="p4od9fjnT" d="M 6075 614 c -33 -7 -112 -20 -175 -29 -63 -8 -132 -18 -152 -21 l -38 -6 0 -14 0 -14 34 0 c 33 0 313 42 386 58 l 35 8 3 17 3 17 -18 -1 c -10 -1 -45 -7 -78 -15 z " fill="#000000"/>
    </g>
  </g>
  <g id="lbH03EqtwJ3xuR0WHG7iLA" fill="rgb(43,43,32)" style="transform: none;">
    <g style="transform: none;" id="g306">
      <path id="pcrwGV5ar" d="M 6819 8578 c 0 -2 -2 -16 -5 -33 -2 -16 -10 -48 -18 -70 l -14 -40 6 -6 c 4 -4 21 -10 39 -14 l 32 -6 20 42 c 12 24 21 51 21 61 l 0 18 15 0 15 0 0 8 0 7 -49 18 c -47 17 -60 20 -62 15 z " fill="#000000"/>
      <path id="p12Z8Y3I7A" d="M 6286 7733 l 15 -15 6 -29 6 -29 183 0 184 0 1 8 c 0 4 2 21 4 38 l 5 32 -41 6 -41 7 -169 -1 -169 -2 16 -15 z " fill="#000000"/>
      <path id="pKGRpPuis" d="M 6179 7172 c -80 -53 -186 -122 -235 -153 -157 -99 -595 -370 -648 -401 -28 -17 -65 -39 -82 -49 l -32 -19 -203 123 c -112 68 -294 179 -403 246 -110 68 -214 131 -232 141 l -32 19 -29 -8 -28 -7 -11 -35 -11 -34 -24 -12 c -13 -7 -22 -13 -19 -14 3 0 21 -3 40 -6 l 34 -5 111 -73 110 -73 80 -69 c 83 -72 385 -387 385 -402 0 -8 -25 -44 -192 -284 l -90 -128 6 -6 6 -6 0 7 c 0 4 14 -4 31 -19 l 32 -26 56 82 c 31 45 101 146 157 223 l 101 141 156 3 155 2 35 -42 c 63 -78 227 -310 278 -395 l 51 -84 24 -16 25 -16 24 11 24 11 14 28 c 8 15 49 114 92 218 42 105 82 204 90 220 7 17 27 64 43 105 17 41 62 154 102 250 39 96 81 201 92 233 l 20 58 7 -4 c 3 -1 46 -22 95 -46 l 89 -43 41 -6 41 -5 -15 17 -14 18 19 14 c 10 8 17 16 14 18 -2 3 -71 40 -154 84 l -149 79 -4 11 -3 10 45 27 46 27 -6 10 -6 10 -26 -7 -25 -6 10 13 10 13 0 36 1 37 17 26 c 10 14 16 26 14 26 -2 0 -70 -44 -150 -98 z  m -16 -225 l 29 -22 -75 -185 c -203 -503 -306 -759 -319 -793 l -14 -38 -47 70 c -25 38 -96 138 -158 222 -61 83 -113 158 -116 165 l -5 14 128 137 c 71 76 172 178 224 226 l 95 88 105 70 c 58 38 110 69 115 69 6 0 23 -10 38 -23 z  m -512 -234 c -5 -10 -71 -79 -145 -153 l -136 -134 -55 29 -54 30 12 12 c 7 6 68 44 137 84 69 39 152 89 185 110 70 45 69 44 56 22 z  m -780 -83 c 15 -8 77 -44 138 -79 l 112 -65 -53 -32 -52 -32 -23 18 c -30 24 -253 256 -253 264 0 3 24 -9 53 -27 28 -17 64 -39 78 -47 z " fill="#000000"/>
      <path id="plWhsvTOL" d="M 6351 7141 l -13 -8 9 -6 8 -5 20 14 19 14 -15 0 c -8 0 -20 -4 -28 -9 z " fill="#000000"/>
      <path id="pP882L3P" d="M 4115 6908 c -11 -6 -21 -12 -23 -13 -2 -2 192 -410 358 -752 l 89 -182 25 -16 24 -16 21 13 21 13 0 12 c 0 6 -48 110 -106 230 -58 120 -141 292 -184 383 -43 91 -96 204 -119 253 l -42 87 -22 0 c -12 0 -31 -6 -42 -12 z " fill="#000000"/>
      <path id="p14dT0AzDP" d="M 2462 5888 l -21 -73 -5 -67 c -2 -36 -10 -86 -16 -110 -26 -97 -30 -116 -30 -132 l 0 -17 9 5 9 6 11 62 c 6 35 13 74 16 88 3 14 10 52 16 85 5 33 12 66 14 73 l 5 13 16 -9 17 -9 31 11 c 17 6 33 12 35 13 2 2 -8 32 -24 68 l -27 65 -18 0 -17 0 -21 -72 z " fill="#000000"/>
      <path id="p1Adc7NJ0j" d="M 4227 5343 c -4 -3 -7 -16 -7 -28 l 0 -22 123 -254 c 68 -140 136 -284 152 -320 l 28 -67 26 24 c 14 13 31 24 38 24 l 13 0 0 9 c 0 5 -54 121 -121 258 -66 136 -130 271 -141 298 -12 28 -28 58 -36 68 l -15 17 -27 0 c -15 0 -30 -3 -33 -7 z " fill="#000000"/>
      <path id="pNSIKGOPJ" d="M 4732 3984 l -22 -15 0 -15 c 0 -25 228 -465 349 -674 l 60 -103 -18 -26 c -10 -14 -46 -73 -81 -131 -194 -321 -483 -791 -551 -895 -44 -67 -79 -125 -79 -129 l 0 -8 16 13 16 13 9 -15 c 5 -8 9 -24 9 -37 l 0 -24 13 4 12 4 70 107 c 39 58 109 169 157 247 l 86 140 -9 0 c -5 0 -9 5 -9 10 l 0 10 27 11 27 10 -14 9 -15 10 15 0 15 1 26 42 c 15 23 86 141 159 262 73 121 140 232 149 246 l 16 27 165 -271 c 153 -251 202 -331 408 -662 41 -66 92 -142 113 -169 l 39 -49 0 17 0 17 18 -9 17 -10 23 9 23 9 -24 37 c -14 21 -74 117 -135 213 -61 96 -131 207 -156 245 -45 71 -180 290 -220 355 -44 73 -92 153 -123 203 -18 29 -44 75 -59 103 l -27 52 60 103 c 77 133 192 348 277 516 l 66 133 0 24 0 24 -14 12 -15 12 -23 -4 -22 -3 -76 -150 c -149 -297 -296 -565 -309 -565 -8 0 -135 234 -298 550 -77 149 -96 179 -113 180 -3 0 -16 -7 -28 -16 z  m 31 -1466 l 4 -13 -14 -27 c -14 -29 -20 -32 -40 -20 l -12 7 21 33 c 21 34 34 40 41 20 z " fill="#000000"/>
      <path id="ptvqgZXJA" d="M 4010 3983 c -12 -5 -175 -99 -189 -109 -1 -1 -4 -15 -4 -31 l -2 -28 -15 -13 -15 -12 16 6 17 5 7 -10 6 -11 -11 0 -11 0 5 -9 6 -9 104 62 c 58 34 112 68 120 75 l 16 13 0 27 0 27 -12 12 c -13 13 -15 13 -38 5 z " fill="#000000"/>
      <path id="p9UuwH3hi" d="M 4563 3978 c -6 -7 -16 -38 -23 -68 -6 -30 -49 -208 -95 -395 -160 -653 -285 -1198 -285 -1238 l 0 -12 11 15 11 15 5 -13 5 -12 9 6 9 5 0 -15 0 -16 19 0 18 0 17 83 c 66 311 173 773 266 1148 61 241 110 449 110 462 l 0 23 -12 12 -12 12 -22 0 -22 0 -9 -12 z " fill="#000000"/>
      <path id="pTeXe6z7Z" d="M 5711 3972 l -10 -18 16 -65 c 9 -35 20 -65 24 -67 l 8 -3 -5 -14 -6 -14 8 -13 c 5 -7 9 -20 9 -28 l 0 -15 20 0 20 0 3 28 3 27 17 0 17 0 -13 -9 -14 -8 4 -19 3 -19 19 -3 19 -4 -7 23 c -3 13 -15 66 -26 118 l -20 94 -11 14 -11 13 -29 0 -28 0 -10 -18 z " fill="#000000"/>
      <path id="p1E9Xkp5AB" d="M 5835 3710 l 20 -9 -12 0 -13 -1 0 -15 0 -15 15 0 15 0 0 -10 c 0 -5 -4 -10 -10 -10 l -10 0 0 -15 0 -15 18 -1 17 -1 -12 -5 -13 -5 0 -14 0 -14 15 0 15 0 0 -10 c 0 -5 -4 -10 -10 -10 l -10 0 0 -15 0 -15 18 -1 17 -1 -12 -5 -13 -5 0 -14 0 -14 15 0 15 0 0 -10 0 -10 -19 0 -19 0 -6 25 -7 26 -9 -6 -9 -5 -16 22 -17 23 5 -24 c 3 -13 16 -70 29 -127 l 23 -104 12 0 13 0 0 -11 0 -10 -11 7 -12 7 5 -14 6 -14 12 3 13 3 -12 -15 -12 -14 7 -36 c 3 -20 10 -38 14 -41 l 7 -5 -4 -22 -4 -23 26 -29 c 14 -16 25 -35 25 -43 l 0 -13 33 0 32 0 -15 -10 -15 -10 18 0 18 0 -4 18 c -3 9 -38 169 -79 354 l -73 338 -20 -1 -20 0 20 -9 z  m 73 -405 l -5 -24 9 -5 9 -4 -11 2 c -7 1 -11 5 -11 9 1 4 1 16 1 27 0 11 3 20 6 20 l 6 0 -4 -25 z " fill="#000000"/>
      <path id="pjSzSDD4y" d="M 4614 1233 l 69 -72 18 10 c 10 5 20 13 23 18 l 6 9 20 -5 20 -5 0 9 c 0 5 -22 30 -49 57 l -48 47 -17 -17 -17 -16 -25 0 -25 0 -22 18 c -12 10 9 -14 47 -53 z " fill="#000000"/>
      <path id="p1DYzscK9Y" d="M 4525 1252 c -6 -4 -15 -16 -21 -27 l -12 -20 -21 1 c -11 0 -21 0 -21 -1 0 -5 152 -116 165 -121 l 15 -6 0 11 c 0 7 12 23 26 38 l 25 25 -18 17 c -16 15 -91 68 -118 84 l -11 6 -9 -7 z " fill="#000000"/>
      <path id="pnZtRTVz9" d="M 3720 755 l 0 -15 25 -6 26 -6 6 6 6 6 -16 0 -17 0 0 15 0 15 -15 0 -15 0 0 -15 z " fill="#000000"/>
      <path id="p3qT8XDQG" d="M 3855 712 l -30 -4 45 -14 c 203 -64 471 -124 690 -154 l 152 -22 11 11 11 11 -9 8 -10 9 -110 12 c -167 20 -308 47 -523 101 -108 28 -196 49 -197 49 0 -1 -13 -4 -30 -7 z " fill="#000000"/>
      <path id="pgUhraM9L" d="M 6305 664 c -78 -21 -292 -64 -315 -64 l -20 0 0 -14 c 0 -8 5 -18 11 -22 l 11 -7 7 9 c 3 5 15 10 26 10 11 1 36 4 55 7 19 3 53 8 75 12 64 9 187 43 197 53 6 6 9 14 7 19 l -4 10 -50 -13 z " fill="#000000"/>
      <path id="peCx5ZZsV" d="M 5732 565 c -57 -7 -105 -15 -108 -18 l -6 -6 7 -10 6 -11 34 0 c 19 0 45 4 59 10 l 26 9 60 2 61 2 5 9 c 3 4 14 8 25 8 l 19 0 0 10 0 10 -42 -1 c -24 -1 -89 -7 -146 -14 z " fill="#000000"/>
    </g>
  </g>
</svg>